<?xml version="1.0" standalone="no"?>
<!DOCTYPE svg PUBLIC "-//W3C//DTD SVG 20010904//EN"
 "http://www.w3.org/TR/2001/REC-SVG-20010904/DTD/svg10.dtd">
<svg version="1.0" xmlns="http://www.w3.org/2000/svg"
 width="260.000000pt" height="260.000000pt" viewBox="0 0 260.000000 260.000000"
 preserveAspectRatio="xMidYMid meet">
<metadata>
Created by potrace 1.11, written by Peter Selinger 2001-2013
</metadata>
<g transform="translate(0.000000,260.000000) scale(0.100000,-0.100000)"
fill="#000000" stroke="none">
<path d="M325 2500 c-21 -41 -19 -154 4 -205 24 -52 54 -79 79 -70 58 18 55
221 -4 286 -26 29 -61 24 -79 -11z"/>
<path d="M439 2501 c41 -57 49 -195 16 -261 -13 -25 -11 -26 45 -53 44 -20 72
-44 114 -93 45 -55 116 -169 116 -187 0 -2 -20 15 -44 39 -41 42 -46 44 -100
44 -37 0 -77 -8 -116 -24 -65 -27 -200 -112 -200 -126 0 -5 19 -2 43 7 23 8
72 16 108 16 56 1 73 -3 105 -24 22 -14 45 -38 53 -52 13 -24 12 -29 -18 -63
-18 -20 -59 -91 -90 -158 -63 -132 -122 -207 -210 -267 -28 -19 -51 -37 -51
-41 0 -16 91 -7 145 13 76 28 149 102 203 207 57 108 86 142 123 142 42 0 75
-40 90 -107 15 -65 3 -128 -36 -182 -13 -19 -23 -37 -21 -39 9 -8 104 46 136
78 19 19 62 87 95 150 58 110 62 116 114 143 69 34 153 37 244 6 87 -29 144
-68 226 -155 39 -41 71 -70 71 -66 0 24 -43 130 -71 176 -69 111 -179 215
-271 255 -94 42 -227 33 -317 -20 -18 -11 -34 -19 -35 -17 -1 2 -12 35 -24 74
-44 141 -180 376 -283 488 -48 53 -146 126 -169 126 -6 0 -2 -13 9 -29z"/>
<path d="M916 2357 c8 -65 -9 -173 -37 -238 l-20 -46 25 -61 c14 -34 26 -66
26 -71 0 -5 4 -21 10 -36 9 -25 11 -25 34 -10 13 9 63 22 110 30 47 8 93 18
103 24 33 17 62 56 113 151 66 121 105 161 209 213 84 42 85 42 195 41 l110 0
-54 25 c-51 24 -65 26 -190 25 -113 0 -145 -4 -194 -22 -122 -45 -214 -127
-274 -242 l-29 -58 -6 62 c-8 81 -29 139 -75 205 -52 75 -64 77 -56 8z"/>
<path d="M1433 2194 c-69 -17 -81 -31 -128 -145 -13 -33 -33 -72 -45 -89 -20
-28 -20 -30 -3 -37 130 -45 238 -147 307 -288 35 -70 86 -230 86 -268 0 -15
-27 6 -107 85 -84 81 -125 113 -183 141 -128 63 -227 69 -293 17 -14 -11 -49
-62 -78 -113 -60 -104 -138 -188 -201 -217 -38 -17 -138 -28 -138 -15 0 3 17
31 37 62 33 49 38 65 41 128 4 65 2 74 -21 100 -33 39 -42 31 -115 -103 -31
-57 -74 -122 -95 -144 -57 -59 -134 -91 -221 -92 -76 -1 -146 10 -146 23 0 4
38 37 84 74 107 83 167 159 212 268 19 47 53 109 75 138 31 41 38 56 29 66
-21 26 -49 27 -80 5 -202 -144 -327 -342 -367 -582 -30 -182 3 -379 93 -561
178 -360 495 -537 962 -537 345 0 670 85 897 234 79 51 228 203 287 293 256
383 276 867 50 1200 -110 162 -349 311 -574 357 -96 20 -280 20 -365 0z"/>
</g>
</svg>
