<svg xmlns="http://www.w3.org/2000/svg" xmlns:xlink="http://www.w3.org/1999/xlink" viewBox="0 0 154.99 152.33"><defs><style>.cls-1{fill:#fff;}.cls-2{fill:url(#Безымянный_градиент_68);}.cls-3{fill-rule:evenodd;fill:url(#Безымянный_градиент_48);}</style><linearGradient id="Безымянный_градиент_68" x1="14.56" y1="58.32" x2="151.17" y2="113.94" gradientUnits="userSpaceOnUse"><stop offset="0" stop-color="#f03"/><stop offset="1" stop-color="red"/></linearGradient><linearGradient id="Безымянный_градиент_48" x1="16" y1="30.78" x2="104.63" y2="61.86" gradientUnits="userSpaceOnUse"><stop offset="0.04" stop-color="#0c0"/><stop offset="0.95" stop-color="#009b1b"/></linearGradient></defs><title>sedam tomato</title><g id="Слой_2" data-name="Слой 2"><g id="Слой_1-2" data-name="Слой 1"><path class="cls-1" d="M154.93,73.4c-.76-18-8.33-33.51-20.76-42.57-11.8-8.62-25.24-13.36-37.85-13.36a47.48,47.48,0,0,0-7.45.59,22.17,22.17,0,0,1,10.92-3,88.29,88.29,0,0,1,11.87,1.47h.14a.75.75,0,0,0,.54-1.27A26.26,26.26,0,0,0,101,9.14,39.23,39.23,0,0,0,90.82,7.82h0c-12,0-22.19,5.07-26.45,12.87-2-10.8-11.8-14.81-11.91-14.85a.66.66,0,0,0-.28,0,.72.72,0,0,0-.46.16.74.74,0,0,0-.28.69A44.34,44.34,0,0,1,51,22.87a14.38,14.38,0,0,1-1.19,2.54c-2.65-4.75-12.86-22-23-25A11.5,11.5,0,0,0,23.51,0,18.21,18.21,0,0,0,21.1.17,4.4,4.4,0,0,0,18.21,2C16.42,4.41,15.58,9,16.16,13.09c.76,5.25,3.93,11,7.47,11.18,1.84.1,6.21,2.47,8,3.72a19.26,19.26,0,0,1,4.2,4.47c-6.78,0-16.93,3.74-25.1,14.23a.77.77,0,0,0,0,.87.75.75,0,0,0,.64.34.52.52,0,0,0,.17,0c.06,0,6.17-1.46,9.47-2.3.39-.1.78-.18,1.16-.25A57.75,57.75,0,0,0,5.4,65.89c-5.22,10.85-11.32,33,6.42,59.66a56.09,56.09,0,0,0,25.44,20.6,84.3,84.3,0,0,0,32.63,6.18c22.43,0,44.91-7.39,58.66-19.29a76.33,76.33,0,0,0,20.65-28.3A73.58,73.58,0,0,0,154.93,73.4Z"/><path class="cls-2" d="M120.46,133.57c.92-.62,1.81-1.26,2.67-1.91s1.7-1.34,2.48-2a73.47,73.47,0,0,0,13-14.64,70.17,70.17,0,0,0,11.34-30,66.87,66.87,0,0,0,.54-6.77,64,64,0,0,0-.14-6.65c-.08-1.08-.19-2.18-.33-3.25A59.54,59.54,0,0,0,148.85,62a53.73,53.73,0,0,0-2.92-8.91,48.9,48.9,0,0,0-4.3-8,44.38,44.38,0,0,0-3.62-4.7,40.78,40.78,0,0,0-6.49-5.93c-.68-.49-1.38-1-2.15-1.5l-.44-.29-.29-.19c-.49-.32-1-.64-1.47-.95l-.6-.37L126.3,31l-1.36-.81-.83-.46-.11-.06c-.45-.25-.89-.49-1.34-.72l-1-.51-1.34-.65-1-.47-1.37-.6-.15-.07L117,26.3l-1.43-.56-.29-.11-.64-.25L113,24.83l-.31-.11-.46-.15c-.82-.26-1.63-.5-2.39-.71l-.13,0-.16,0c-.75-.2-1.44-.38-2.11-.53l-.5-.1-.33-.07c-.52-.11-1.05-.22-1.57-.31l-.68-.11-.28-.05-1.45-.22-.9-.1h-.1c-.47-.06-.94-.1-1.41-.14l-1-.08c-.46,0-.93-.05-1.39-.06l-1,0h-.52l-.85,0h-.84c-.74,0-1.49.07-2.21.13l-.28,0-.23,0-1.72.2-.71.11c-.52.09-1.07.18-1.62.3l-.23,0-.37.07c-.73.16-1.44.34-2.11.52l-.29.09-.23.06L83,24.1l-.72.25-.25.09-.11,0a29.42,29.42,0,0,0-3.57,6.86c-1.32,3.59-2.75,5.95-4.38,7.21A23.3,23.3,0,0,1,80,41c16.36,9.55,18.66,31.41,18.68,31.63a.75.75,0,0,1-.43.75.71.71,0,0,1-.32.07.76.76,0,0,1-.54-.23c-2.57-2.66-9.48-9.75-10.53-10.56-3-2.35-9.41-5.88-13.44-6.41A24.81,24.81,0,0,0,70.3,56a10.25,10.25,0,0,0-5.85,1.46c-2.07,1.42-3.15,3.44-4.52,6-.53,1-1.14,2.13-1.85,3.31-3.41,5.65-9.12,12.37-17,12.37A13.46,13.46,0,0,1,38.85,79a.75.75,0,0,1-.58-.48.76.76,0,0,1,.14-.75c6.54-7.62,5.2-13.19,4.32-15.23-.7-1.64-1.68-2.38-2-2.39h-.11c-.92,0-1.87,1.09-5.12,7.51l-.21.43C33,72.52,28.39,81.77,16,81.77a32.31,32.31,0,0,1-8.4-1.21.75.75,0,0,1-.23-1.34c13.42-9.17,15.67-14.68,17.84-20A29.21,29.21,0,0,1,32,48.31,10.27,10.27,0,0,0,29,46.12,49.82,49.82,0,0,0,24.74,49l0,0a50.79,50.79,0,0,0-4.26,3.68l-.05,0-.08.07-.75.75-.05.05,0,0c-.79.8-1.57,1.64-2.31,2.5l-.07.07c-.22.25-.43.51-.65.77l-.2.24c-.2.25-.41.5-.61.76l-.13.16-.07.1c-.65.83-1.29,1.7-1.89,2.57l-.07.11-.1.14-.52.78-.25.37-.46.74-.23.38-.05.08c-.14.23-.29.47-.43.72l-.15.25-.09.17c-.26.45-.51.91-.76,1.37l-.09.17-.19.35-.32.65,0,0-.28.58c-.12.23-.22.46-.33.7s-.19.41-.29.62l0,.07-.27.61-.28.66,0,.08c-.13.31-.26.63-.38.94l-.34.9c-.06.16-.11.32-.17.47L7.33,73c-.08.25-.17.51-.26.76l-.21.66c-.09.26-.17.52-.25.78l0,.12c0,.17-.11.34-.15.51s-.18.65-.27,1l0,.2c0,.08-.05.17-.08.26l-.33,1.4c0,.12,0,.24-.08.37l0,.19c-.07.31-.13.62-.19.93s-.08.41-.11.62-.11.61-.16.93v.07L5,82.25c0,.37-.1.74-.14,1.11l0,.18,0,.24c-.06.5-.11,1-.15,1.52l0,.29,0,.19c0,.36,0,.73-.07,1.1,0,.18,0,.37,0,.58s0,.7,0,1.05v.57q0,.6,0,1.2v.42c0,.53,0,1.07.06,1.61v.23l0,.19c0,.41.05.82.09,1.24,0,.16,0,.32,0,.49v.08c0,.37.07.75.12,1.13,0,.19,0,.39.07.58.06.42.12.83.19,1.25l0,.19,0,.25c.1.56.2,1.13.31,1.7l0,.18,0,.16c.09.46.19.91.29,1.37l.11.44,0,.14c.1.39.2.79.31,1.18,0,.2.1.4.16.6.11.42.24.85.37,1.27l.06.2.08.29c.19.58.38,1.17.58,1.76l0,.13,0,.14.55,1.5c0,.13.11.27.16.41l.07.17c.16.41.32.81.5,1.22.08.21.17.42.26.63.18.42.37.85.56,1.27l.1.2.15.34q.42.9.87,1.8l0,.09.05.09c.28.54.56,1.09.86,1.64.07.13.14.27.22.4l.1.18c.23.43.47.85.71,1.27l.37.64c.26.43.51.85.78,1.28l.11.19.24.39c.39.61.78,1.23,1.19,1.84s.74,1.09,1.12,1.61l.16.21.14.19c.29.39.57.78.87,1.16l.22.26.18.21.11.14c.24.3.47.59.72.88.07.09.15.17.23.26l.18.2.11.13c.25.28.5.57.75.84l.26.27.19.2.14.15.74.76.26.25.2.19.14.14.77.74.25.22.2.18.11.1.85.76.25.21.2.16.09.07c.31.26.61.52.92.76l.25.19.2.15.06.05c.33.26.66.52,1,.77l.24.17.2.14.06,0,1,.74.26.17.21.14.06,0c.35.23.69.47,1.05.69l.27.16.21.13,0,0,1.09.67.26.15.22.12.05,0c.37.21.74.43,1.12.63l.28.15.22.11.06,0,1.13.59.31.15.23.11.1,0,1.08.52.32.14.23.1.1,0c.37.16.73.33,1.1.48l.34.14.24.1.13.05,1.07.44.35.13.25.09.13.05,1.08.4.36.13.26.09.14,0,1.06.35.41.13.26.08.18.06,1,.31.42.12.27.07.19.06c.33.09.66.19,1,.27l.45.12.28.07.21,0c.32.08.63.17,1,.24l.5.11.28.07.23,0,.91.2.51.1.29.06.23,0,.9.17.54.1.3.05.25,0,.86.15.57.08.3.05.25,0,.85.13.6.07.29,0,.26,0,.82.1.63.06.29,0,.26,0,.8.08.66.05.29,0,.27,0q.39,0,.78.06l.68,0,.29,0H65l.76,0,.69,0H67l.74,0h2.35c1.26,0,2.52,0,3.72-.08h.27c1.27,0,2.53-.13,3.73-.23h.26c1.27-.11,2.52-.23,3.72-.38h.13l.12,0c1.27-.15,2.51-.33,3.69-.52l.12,0,.13,0c1.25-.2,2.48-.43,3.65-.66l.12,0,.12,0c1.24-.25,2.45-.52,3.6-.8l.11,0,.12,0c1.22-.29,2.41-.6,3.53-.92l.11,0,.11,0c1.19-.34,2.36-.69,3.46-1l.1,0,.1,0c1.17-.38,2.31-.78,3.39-1.19l.07,0,.09,0c1.14-.43,2.25-.87,3.3-1.31l.06,0,.09,0c1.1-.47,2.18-.95,3.19-1.43l0,0,.07,0c1.06-.51,2.1-1,3.12-1.58l0,0c1-.55,2-1.12,3-1.68l.39.64-.32-.68C118.58,134.8,119.53,134.2,120.46,133.57Z"/><path class="cls-3" d="M26.61,21.9c2.31.28,6.06,2.47,7.78,4.12a54.4,54.4,0,0,1,6.27,7.9,47.56,47.56,0,0,1,4.6,10.29C42.36,39,41.05,38,39.38,36.48a5,5,0,0,0-2.93-1.08C28,34,16,44.38,16,44.38h0c7.18-3.14,15.75-3.82,19.88,4.48h0C25.76,57.59,31.32,67,12.41,78.91c0,0,11,2.39,18.81-10,2.09-3.32,5.52-13.19,10-12.12,1.82.43,3.25,1.55,4.43,4.51,3.55,8.89-3,15.18-3,15.18,12.82-3.45,12.59-16.79,18.24-21A16.15,16.15,0,0,1,72.8,52.69,31.46,31.46,0,0,1,91.13,62.75l4.18,4.81h0s-1.52-4.59-2-5.78c-3.53-7.94-8.5-13.32-15.32-18.11-8.63-6.07-21.47-2.82-25.62,2.7,0,0,1-1.94,1.25-2.59,0,0-1.92-6.06-2.6-7.83a62.13,62.13,0,0,0-3.16-6.71c-1.31-2.5-2.65-4.95-4.1-7.36-.66-1-1.34-2.13-2.06-3.17-1.06-1.6-2.1-3.12-3.3-4.6-.53-.7-1.14-1.43-1.7-2.12-1-1.2-2.16-2.41-3.26-3.52C32.57,7.71,31.74,7,30.9,6.34a17.58,17.58,0,0,0-2.52-1.76C27.07,3.79,25.45,3,25.45,3h0c1,1.64,2.95,3.45,3.19,8.59C29,19.37,26.61,21.9,26.61,21.9ZM53.72,35.64C53.19,34.17,51.33,30,51.33,30s1.31-2.48,1.75-3.52c1.37-3.28,2-6.76,1.86-12.15l-.22-4.15C60.49,16.82,62.57,21,62.23,32h0c6-16.8,18.75-23.63,37-21.06a14.8,14.8,0,0,1,7.11,2.76s-1.34-.24-2.83-.53C95.89,11.69,89,14.75,83.6,18.43c-8.19,5.56-8,17.78-16.11,19.64-4,.92-8.7.59-12,3.36C55.51,41.43,54.62,38.16,53.72,35.64Zm-30-14.48c-2-.14-4.27-3.39-5-8.38C18,7.48,19.46,3.36,21.5,3s4.65,3.08,5,8.41c.19,2.63.27,9.52-2.77,9.75h0"/></g></g></svg>