<svg xmlns="http://www.w3.org/2000/svg" xmlns:xlink="http://www.w3.org/1999/xlink" viewBox="0 0 294.26 152.33"><defs><style>.cls-1{fill:#fff;}.cls-2{fill:url(#Безымянный_градиент_68);}.cls-3,.cls-4,.cls-8{fill-rule:evenodd;}.cls-3{fill:url(#Безымянный_градиент_48);}.cls-4{fill:url(#Безымянный_градиент_9);}.cls-5{fill:url(#Безымянный_градиент_9-2);}.cls-6{fill:url(#Безымянный_градиент_9-3);}.cls-7{fill:url(#Безымянный_градиент_9-4);}.cls-8{fill:url(#Безымянный_градиент_9-5);}</style><linearGradient id="Безымянный_градиент_68" x1="84.2" y1="58.32" x2="220.81" y2="113.94" gradientUnits="userSpaceOnUse"><stop offset="0" stop-color="#f03"/><stop offset="1" stop-color="red"/></linearGradient><linearGradient id="Безымянный_градиент_48" x1="85.64" y1="30.78" x2="174.27" y2="61.86" gradientUnits="userSpaceOnUse"><stop offset="0.04" stop-color="#0c0"/><stop offset="0.95" stop-color="#009b1b"/></linearGradient><linearGradient id="Безымянный_градиент_9" x1="-18.47" y1="63.3" x2="226.87" y2="308.64" gradientUnits="userSpaceOnUse"><stop offset="0.04" stop-color="#0c0"/><stop offset="0.98" stop-color="#009b1b"/></linearGradient><linearGradient id="Безымянный_градиент_9-2" x1="4.77" y1="33.75" x2="245.61" y2="274.59" xlink:href="#Безымянный_градиент_9"/><linearGradient id="Безымянный_градиент_9-3" x1="19.83" y1="-1.12" x2="270.56" y2="249.61" xlink:href="#Безымянный_градиент_9"/><linearGradient id="Безымянный_градиент_9-4" x1="46.26" y1="-31.35" x2="291.35" y2="213.74" xlink:href="#Безымянный_градиент_9"/><linearGradient id="Безымянный_градиент_9-5" x1="73.35" y1="-64.28" x2="314.64" y2="177.01" xlink:href="#Безымянный_градиент_9"/></defs><title>sedam logo old</title><g id="Слой_2" data-name="Слой 2"><g id="Слой_1-2" data-name="Слой 1"><path class="cls-1" d="M224.56,73.4c-.75-18-8.32-33.51-20.76-42.57C192,22.21,178.57,17.47,166,17.47a47.35,47.35,0,0,0-7.44.59,22.14,22.14,0,0,1,10.91-3,87.81,87.81,0,0,1,11.87,1.47h.14a.75.75,0,0,0,.54-1.27,26.11,26.11,0,0,0-11.32-6.14,39.36,39.36,0,0,0-10.2-1.32h0c-12,0-22.2,5.07-26.45,12.87-2-10.8-11.81-14.81-11.91-14.85a.76.76,0,0,0-.74.11.74.74,0,0,0-.28.69,44.54,44.54,0,0,1-.4,16.23,13.55,13.55,0,0,1-1.18,2.54c-2.65-4.75-12.86-22-23-25A11.6,11.6,0,0,0,93.15,0a18.36,18.36,0,0,0-2.42.17A4.4,4.4,0,0,0,87.85,2c-1.79,2.37-2.63,6.92-2,11.05.75,5.25,3.93,11,7.46,11.18,1.84.1,6.21,2.47,8,3.72a19.3,19.3,0,0,1,4.21,4.47c-6.78,0-16.93,3.74-25.1,14.23a.75.75,0,0,0,0,.87.74.74,0,0,0,.63.34.47.47,0,0,0,.17,0c.07,0,6.18-1.46,9.48-2.3.39-.1.77-.18,1.15-.25A57.72,57.72,0,0,0,75,65.89c-5.22,10.85-11.33,33,6.41,59.66a56.06,56.06,0,0,0,25.45,20.6,84.3,84.3,0,0,0,32.63,6.18c22.43,0,44.91-7.39,58.66-19.29a76.3,76.3,0,0,0,20.64-28.3A73.43,73.43,0,0,0,224.56,73.4Z"/><path class="cls-2" d="M190.09,133.57c.92-.62,1.82-1.26,2.67-1.92s1.7-1.33,2.48-2a73.16,73.16,0,0,0,13-14.64,71.14,71.14,0,0,0,6.89-13,67.18,67.18,0,0,0,2.32-6.75A69.28,69.28,0,0,0,219.56,85c.29-2.24.47-4.52.54-6.77s0-4.46-.15-6.65c-.08-1.08-.19-2.18-.32-3.25A59.56,59.56,0,0,0,218.48,62a54.65,54.65,0,0,0-2.91-8.91,48.19,48.19,0,0,0-4.31-8,44.3,44.3,0,0,0-3.61-4.7,40.85,40.85,0,0,0-6.5-5.93c-.68-.49-1.38-1-2.15-1.5l-.43-.29-.29-.19-1.47-.95-.61-.37-.26-.16-1.37-.81-.82-.46-.12-.06c-.44-.25-.89-.49-1.33-.72l-1-.51L190,27.79l-1-.47-1.36-.6-.16-.07-.83-.35-1.43-.56-.29-.11-.64-.25-1.6-.55-.32-.11-.46-.15c-.82-.26-1.62-.5-2.38-.71l-.13,0-.16,0c-.76-.2-1.45-.38-2.11-.53l-.51-.1-.32-.07c-.53-.11-1-.22-1.58-.31l-.68-.11-.27-.05-1.46-.22-.89-.1h-.11c-.47-.06-.94-.1-1.41-.14l-1-.08c-.47,0-.93-.05-1.4-.06l-1,0H166l-.85,0h-.83c-.75,0-1.49.07-2.22.13l-.28,0-.23,0-1.71.2-.72.11c-.52.09-1.06.18-1.61.3l-.24,0-.36.07c-.73.16-1.44.34-2.12.52l-.28.09-.23.06-1.62.51-.71.25-.26.09-.11,0A29,29,0,0,0,148,31.34c-1.33,3.59-2.76,5.95-4.39,7.21a23.3,23.3,0,0,1,6,2.46c16.37,9.55,18.66,31.41,18.68,31.63a.73.73,0,0,1-.43.75.7.7,0,0,1-.31.07.74.74,0,0,1-.54-.23c-2.57-2.66-9.48-9.75-10.53-10.56-3-2.35-9.42-5.88-13.45-6.41a24.79,24.79,0,0,0-3.09-.22,10.25,10.25,0,0,0-5.85,1.46c-2.08,1.42-3.15,3.44-4.52,6-.53,1-1.14,2.13-1.86,3.31-3.41,5.65-9.12,12.37-17,12.37a13.35,13.35,0,0,1-2.26-.19.74.74,0,0,1-.58-.48.75.75,0,0,1,.13-.75c6.55-7.62,5.21-13.19,4.33-15.23-.71-1.64-1.69-2.38-2-2.39h-.11c-.92,0-1.88,1.09-5.12,7.51l-.22.43c-2.23,4.45-6.86,13.7-19.3,13.7a32.24,32.24,0,0,1-8.39-1.21A.74.74,0,0,1,77,79.22c13.42-9.17,15.66-14.68,17.83-20a29.12,29.12,0,0,1,6.86-10.9,10.41,10.41,0,0,0-3.07-2.19A48.26,48.26,0,0,0,94.38,49l0,0a50.92,50.92,0,0,0-4.27,3.68l0,0-.08.07-.76.75-.05.05,0,0c-.8.8-1.58,1.64-2.32,2.5l-.06.07c-.22.25-.44.51-.65.77l-.2.24c-.21.25-.41.5-.61.76l-.13.16-.07.1c-.66.83-1.29,1.7-1.89,2.57l-.08.11-.1.14-.52.78-.24.37-.46.74-.24.38,0,.08c-.15.23-.29.47-.43.72l-.15.25-.09.17c-.26.45-.52.91-.76,1.37l-.09.17-.19.35-.33.65,0,0c-.1.19-.19.39-.29.58l-.33.7c-.09.2-.19.41-.28.62l0,.07-.27.61c-.1.22-.19.44-.28.66l0,.08c-.13.31-.26.63-.38.94s-.24.6-.35.9-.11.32-.17.47L77,73c-.09.25-.18.51-.26.76s-.15.44-.22.66l-.24.78,0,.12-.15.51-.27,1-.05.2c0,.08,0,.17-.07.26-.12.47-.23.93-.34,1.4,0,.12,0,.24-.07.37l0,.19c-.07.31-.13.62-.2.93s-.07.41-.11.62-.11.61-.16.93v.07c0,.17,0,.34-.08.52l-.15,1.11,0,.18,0,.24c-.06.5-.11,1-.16,1.51l0,.3v.19c0,.36,0,.73-.07,1.1,0,.18,0,.37,0,.58l0,1.05v.07c0,.16,0,.33,0,.5,0,.4,0,.8,0,1.2v.42c0,.53,0,1.07.06,1.61l0,.23v.19c0,.41.06.82.1,1.24,0,.16,0,.32,0,.49v.08c0,.37.08.75.13,1.13,0,.19,0,.39.07.58,0,.42.12.83.18,1.25l0,.19,0,.25c.09.56.19,1.13.31,1.7l0,.18,0,.16c.09.46.19.91.3,1.37l.1.44,0,.14c.09.39.2.79.3,1.18,0,.2.11.4.16.6.12.42.24.85.37,1.27l.06.2.09.29c.18.58.37,1.17.58,1.76l.05.13,0,.14c.17.5.35,1,.55,1.5,0,.13.1.27.16.41l.06.17c.16.41.33.81.5,1.22l.26.63.57,1.27.09.2.15.34q.42.9.87,1.8l0,.09.05.09c.27.54.56,1.09.85,1.64l.22.4.1.18.71,1.27.38.64c.25.43.51.85.77,1.28l.12.19.24.39c.38.61.78,1.23,1.19,1.84s.73,1.09,1.12,1.61l.15.21.14.19c.29.39.58.78.88,1.16l.22.26.17.21.11.14.72.88c.08.09.16.17.23.26l.18.2.12.13c.25.28.49.57.75.84l.25.27.2.2.14.15c.24.25.48.51.73.76l.26.25.2.19.15.14c.25.25.5.5.76.74l.26.22.2.18.11.1.85.76.25.21.19.16.1.07c.3.26.61.52.92.76l.24.19.2.15.07.05c.32.26.65.52,1,.77l.25.17.2.14.06,0c.34.25.68.5,1,.74l.27.17.2.14.06,0,1.05.69.27.16.21.13.06,0,1.08.67.27.15.22.12,0,0c.37.21.74.43,1.12.63l.28.15.22.11.06,0c.37.2.74.4,1.12.59l.31.15.23.11.1,0,1.08.52.32.14.24.1.1,0,1.09.48.34.14.25.1.12.05,1.07.44.35.13.25.09.13.05,1.08.4.37.13.26.09.14,0L114,144l.4.13.27.08.18.06,1,.31.41.12.28.07.18.06,1,.27.46.12.28.07.21,0c.31.08.63.17,1,.24l.49.11.28.07.23,0,.92.2.51.1.28.06.24,0,.9.17.54.1.29.05.25,0,.87.15.57.08.3.05.25,0,.84.13.6.07.29,0,.26,0,.82.1.63.06.29,0,.27,0,.8.08.65.05.29,0,.28,0c.26,0,.51.05.77.06l.68,0,.29,0h.27l.76,0,.7,0h.56l.75,0h2.34c1.27,0,2.52,0,3.73-.08h.27c1.27,0,2.52-.13,3.73-.23h.25c1.27-.11,2.52-.23,3.72-.38h.13l.13,0c1.26-.15,2.5-.33,3.69-.52l.12,0,.13,0c1.24-.2,2.47-.43,3.64-.66l.12,0,.13,0c1.23-.25,2.44-.52,3.59-.8l.11,0,.13,0c1.22-.29,2.4-.6,3.53-.92l.1,0,.11,0c1.2-.34,2.36-.69,3.47-1l.09,0,.11,0c1.16-.38,2.3-.78,3.38-1.19l.08,0,.09,0c1.14-.43,2.25-.87,3.3-1.31l.06,0,.08,0c1.11-.47,2.18-.95,3.2-1.43l0,0,.07,0c1.07-.51,2.1-1,3.12-1.58l.05,0c1-.55,2-1.12,3-1.68l.39.64-.33-.68C188.22,134.8,189.16,134.2,190.09,133.57Z"/><path class="cls-3" d="M96.24,21.9c2.32.28,6.07,2.47,7.79,4.12a54.33,54.33,0,0,1,6.26,7.9,47.83,47.83,0,0,1,4.61,10.29C112,39,110.68,38,109,36.48a5,5,0,0,0-2.93-1.08c-8.48-1.45-20.4,9-20.4,9h0c7.18-3.14,15.74-3.82,19.87,4.48h0C95.39,57.59,101,67,82,78.91c0,0,11,2.39,18.81-10,2.09-3.32,5.53-13.19,10-12.12,1.83.43,3.26,1.55,4.44,4.51,3.54,8.89-3,15.18-3,15.18,12.81-3.45,12.58-16.79,18.24-21a16.15,16.15,0,0,1,11.92-2.75,31.44,31.44,0,0,1,18.32,10.06l4.18,4.81h0s-1.51-4.59-2-5.78c-3.54-7.94-8.51-13.32-15.33-18.11C139,37.6,126.1,40.85,122,46.37c0,0,1-1.94,1.25-2.59,0,0-1.91-6.06-2.59-7.83a64.09,64.09,0,0,0-3.16-6.71c-1.32-2.5-2.65-4.95-4.11-7.36-.66-1-1.33-2.13-2-3.17-1.06-1.6-2.11-3.12-3.3-4.6-.54-.7-1.14-1.43-1.7-2.12-1.06-1.2-2.16-2.41-3.27-3.52-.81-.76-1.65-1.45-2.48-2.13A17.58,17.58,0,0,0,98,4.58C96.7,3.79,95.08,3,95.08,3h0c1,1.64,3,3.45,3.19,8.59C98.64,19.37,96.24,21.9,96.24,21.9Zm27.11,13.74C122.83,34.17,121,30,121,30s1.31-2.48,1.74-3.52c1.37-3.28,2-6.76,1.87-12.15l-.22-4.15c5.77,6.68,7.85,10.84,7.51,21.87h0c5.95-16.8,18.75-23.63,37-21.06a14.79,14.79,0,0,1,7.1,2.76l-2.83-.53c-7.61-1.49-14.48,1.57-19.9,5.25-8.19,5.56-8,17.78-16.11,19.64-4,.92-8.69.59-12,3.36C125.15,41.43,124.25,38.16,123.35,35.64ZM93.4,21.16c-2-.14-4.28-3.39-5-8.38-.77-5.3.71-9.42,2.76-9.78s4.65,3.08,5,8.41c.19,2.63.26,9.52-2.77,9.75h0"/><path class="cls-1" d="M138.2,123.1a36.24,36.24,0,0,1-.82,8.21,16.65,16.65,0,0,1-1.63,4.23l-.58.75h29.9V111.52H138.2Zm2.76,9.15a39.88,39.88,0,0,0,.92-9.12v-7.65h19v16.85H140.92Z"/><path class="cls-1" d="M109.32,113.61a8.26,8.26,0,0,0-6.27-2.26H86.74A7.5,7.5,0,0,0,78.82,118l0,.83h32.67l0-.83A8,8,0,0,0,109.32,113.61Z"/><path class="cls-1" d="M276.44,101l-15.23,25.54L246.1,101H228.77v17.15l-.21-3.12a15.85,15.85,0,0,0-4.34-9.21c-3.54-3.54-8.53-4.82-13.9-4.82H194.66c-4.83,0-9.3,1.08-12.8,3.85-2.82,2.17-5.47,5.46-5.24,9.59l.15.84v6.11h.12l-.74,1.27V101H126.57v22.74a19.87,19.87,0,0,1-1,6.8,5.48,5.48,0,0,1-.87,1.56l-.28.22h-1.92l.11-1.29V118.49a16.43,16.43,0,0,0-5.49-12.56c-3.92-3.58-9.09-5.06-14.87-5.06h-15c-5.74,0-10.83,1.71-14.77,5.54a17.12,17.12,0,0,0-5.45,12.66v3.45l-13.66,0v5.08c0,2.15-.61,2.73-.93,3-.58.44-2.5,1.2-6.93,1.2H23.59c-4.86,0-6.61-.93-7-1.32S15.3,128.66,15.3,124V109.4c0-4.93,1-6.55,1.32-6.87s2.12-1.33,7-1.33H45.53c4.43,0,6.37.82,7,1.38.24.2.81.74.81,2.77v5.07h15.3v-5.07c0-5.91-1.94-11.12-6.46-14.67C57.91,87.28,52,86,45.46,86H23.53C16.36,86,9.94,87.47,5.69,91.7S0,102.31,0,109.4V124c0,7,1.43,13.41,5.69,17.52s10.65,5.43,17.84,5.43H45.46c6.87,0,13-1.19,17.21-4.71a16.13,16.13,0,0,0,4.65-6.48l.47-1.73.69,2.46c2.81,6.93,9.56,10.46,18.93,10.46h17.47A19.44,19.44,0,0,0,115.79,144l2.54-2.2v10.35h15.1v-5.35h31.8v5.35h15.1v-8.35l2.34,1.32a23.35,23.35,0,0,0,9.34,1.68h20.2l1.28-.19v.19h30.6v-21l12.55,21h9.21l12.56-21v21h15.64l.21-45.77ZM65,127.58c0,5-1.49,9-4.63,11.59S52.3,143,45.73,143H23.8c-6.87,0-12-1.36-15.09-4.32s-4.49-8-4.49-14.68V109.4c0-6.7,1.43-11.75,4.54-14.89S17,90,23.8,90H45.73C58.19,90,65,95,65,105.35v1.09H57.61v-1.09c0-2.81-.8-4.66-2.26-5.83-1.76-1.45-4.84-2.3-9.55-2.3H23.87c-5.05,0-8.16.93-9.73,2.46s-2.52,4.62-2.52,9.72V124c0,4.9,1,7.87,2.5,9.33s4.7,2.42,9.75,2.42H45.8c4.62,0,7.64-.76,9.29-2s2.52-3.15,2.52-6.14v-1.09H65ZM119,125.36H78.69v2.36c0,3.27.88,5.45,2.42,6.83,1.38,1.19,3.43,1.88,6.35,1.88h17c2.59,0,4.35-.58,5.41-1.55a4.91,4.91,0,0,0,1.72-3.84v-1.82H119V131a11.22,11.22,0,0,1-3,7.79c-2.53,2.82-6.21,4.14-10.85,4.14H87.69c-10.68,0-16.4-4.84-16.4-14.53v-9.37a13.14,13.14,0,0,1,4.22-9.8,16.66,16.66,0,0,1,12-4.46h15c5.1,0,9.22,1.32,12.22,4a12.48,12.48,0,0,1,4.19,9.63Zm-11.65,4V131a1,1,0,0,1-.39.89c0,.06-.66.54-2.76.54h-17c-2.35,0-3.33-.55-3.73-.92a3.29,3.29,0,0,1-1-2.22Zm69.36,18.84h-7.19v-5.36H129.76v5.36h-7.18V136.29h3.5l1-.66a8.8,8.8,0,0,0,2.52-3.73,23.18,23.18,0,0,0,1.23-8.16V105h41.67v31.31h4.19Zm48.45-5.36h-7.39V141.3l-1,.61a9.78,9.78,0,0,1-4.22.9h-20.2c-4.07,0-7.3-.74-9.6-2.41s-3.49-4.4-3.49-7.77v-4.32a8.48,8.48,0,0,1,3-6.85c2.2-1.81,5.34-2.65,9.23-2.65h20.86a12,12,0,0,1,5,.89l.46.26v-2.11a5.82,5.82,0,0,0-1.65-4.4c-1.25-1.25-3.17-1.93-5.95-1.93H196.26c-3.56,0-5.77.76-6.95,2a2.1,2.1,0,0,0-.44.64l-.36,1.07v2.23H181V115l-.1-1.72c.28-1.93,1.6-3.72,3.68-5.35,2.57-2,6.07-3,10.36-3h15.66c4.81,0,8.61,1.15,11.12,3.64,2.33,2.34,3.4,5.74,3.4,10Zm64.93,0h-7.39V111.44l-18.77,31.37h-4.7L240.4,111.44v31.37H233V105h11.11l17.35,29.31L279,105H290Z"/><path class="cls-1" d="M216.16,126.7c-1-.82-2.68-1.34-5.15-1.34h-17.7c-3.16,0-4.88.43-5.6,1s-1.13,1.43-1.13,3.14v2.59a3.3,3.3,0,0,0,1.09,2.88c1,.74,2.76,1.23,5.64,1.23H211c4.76,0,6.71-1.87,6.71-5.41A4.84,4.84,0,0,0,216.16,126.7Zm-2.74,4.85-.07.19-.09,0a6.06,6.06,0,0,1-2.52.39H193a11.67,11.67,0,0,1-2.46-.19l-.3-.07V129.5l.24,0a22.5,22.5,0,0,1,2.52-.13h17.7a6.21,6.21,0,0,1,2.52.38l.11,0,0,.19a4.25,4.25,0,0,1,.07.81A3.87,3.87,0,0,1,213.42,131.55Z"/><path class="cls-4" d="M57.61,127.58c0,3-.9,5-2.52,6.14s-4.67,2-9.29,2H23.87c-5.05,0-8.17-.91-9.75-2.42s-2.5-4.43-2.5-9.33V109.4c0-5.1,1-8.19,2.52-9.72s4.68-2.46,9.73-2.46H45.8c4.71,0,7.79.85,9.55,2.3,1.46,1.17,2.26,3,2.26,5.83v1.09H65v-1.09C65,95,58.19,90,45.73,90H23.8c-6.8,0-11.91,1.42-15,4.53S4.22,102.7,4.22,109.4V124c0,6.68,1.4,11.7,4.49,14.68S16.93,143,23.8,143H45.73c6.57,0,11.55-1.18,14.66-3.8S65,132.62,65,127.58v-1.09H57.61Z"/><path class="cls-5" d="M114.76,108.86c-3-2.73-7.12-4-12.22-4h-15a16.66,16.66,0,0,0-12,4.46,13.14,13.14,0,0,0-4.22,9.8v9.37c0,9.69,5.72,14.53,16.4,14.53h17.46c4.64,0,8.32-1.32,10.85-4.14a11.22,11.22,0,0,0,3-7.79v-1.82h-7.4V131a4.91,4.91,0,0,1-1.72,3.84c-1.06,1-2.82,1.55-5.41,1.55h-17c-2.92,0-5-.69-6.35-1.88-1.54-1.38-2.42-3.56-2.42-6.83v-2.36H119v-6.87A12.48,12.48,0,0,0,114.76,108.86Zm-36,10,0-.83a7.5,7.5,0,0,1,7.92-6.63h16.31a8.26,8.26,0,0,1,6.27,2.26A8,8,0,0,1,111.4,118l0,.83Z"/><path class="cls-6" d="M172.47,105H130.8v18.76a23.18,23.18,0,0,1-1.23,8.16,8.8,8.8,0,0,1-2.52,3.73l-1,.66h-3.5v11.88h7.18v-5.36h39.71v5.36h7.19V136.29h-4.19Zm-7.4,31.31h-29.9l.58-.75a16.65,16.65,0,0,0,1.63-4.23,36.24,36.24,0,0,0,.82-8.21V111.52h26.87Z"/><path class="cls-7" d="M210.59,105H194.93c-4.29,0-7.79,1-10.36,3-2.08,1.63-3.4,3.42-3.68,5.35L181,115v2.39h7.53V115.2l.36-1.07a2.1,2.1,0,0,1,.44-.64c1.18-1.21,3.39-2,6.95-2h13.86c2.78,0,4.7.68,5.95,1.93a5.82,5.82,0,0,1,1.65,4.4V120l-.46-.26a12,12,0,0,0-5-.89H191.43c-3.89,0-7,.84-9.23,2.65a8.48,8.48,0,0,0-3,6.85v4.32c0,3.37,1.1,6.06,3.49,7.77s5.53,2.41,9.6,2.41h20.2a9.78,9.78,0,0,0,4.22-.9l1-.61v1.51h7.39V118.64c0-4.28-1.07-7.68-3.4-10C219.2,106.13,215.4,105,210.59,105Zm.42,31.18h-17.7c-2.88,0-4.69-.49-5.64-1.23a3.3,3.3,0,0,1-1.09-2.88v-2.59c0-1.71.47-2.63,1.13-3.14s2.44-1,5.6-1H211c2.47,0,4.15.52,5.15,1.34a4.84,4.84,0,0,1,1.56,4C217.72,134.29,215.77,136.16,211,136.16Z"/><polygon class="cls-8" points="261.47 134.29 244.12 104.98 233.01 104.98 233.01 142.81 240.4 142.81 240.4 111.44 259.18 142.81 263.88 142.81 282.65 111.44 282.65 142.81 290.04 142.81 290.04 104.98 278.95 104.98 261.47 134.29"/></g></g></svg>