<svg xmlns="http://www.w3.org/2000/svg" xmlns:xlink="http://www.w3.org/1999/xlink" viewBox="0 0 329.23 73.96"><defs><style>.cls-1{fill:#fff;}.cls-2,.cls-6{fill-rule:evenodd;}.cls-2{fill:url(#Безымянный_градиент_9);}.cls-3{fill:url(#Безымянный_градиент_9-2);}.cls-4{fill:url(#Безымянный_градиент_9-3);}.cls-5{fill:url(#Безымянный_градиент_9-4);}.cls-6{fill:url(#Безымянный_градиент_9-5);}</style><linearGradient id="Безымянный_градиент_9" x1="-20.67" y1="-25.42" x2="253.83" y2="249.08" gradientUnits="userSpaceOnUse"><stop offset="0.04" stop-color="#0c0"/><stop offset="0.98" stop-color="#009b1b"/></linearGradient><linearGradient id="Безымянный_градиент_9-2" x1="5.34" y1="-58.48" x2="274.8" y2="210.97" xlink:href="#Безымянный_градиент_9"/><linearGradient id="Безымянный_градиент_9-3" x1="22.19" y1="-97.5" x2="302.72" y2="183.02" xlink:href="#Безымянный_градиент_9"/><linearGradient id="Безымянный_градиент_9-4" x1="51.76" y1="-131.32" x2="325.97" y2="142.9" xlink:href="#Безымянный_градиент_9"/><linearGradient id="Безымянный_градиент_9-5" x1="82.07" y1="-168.16" x2="352.03" y2="101.8" xlink:href="#Безымянный_градиент_9"/></defs><title>sedam text old</title><g id="Слой_2" data-name="Слой 2"><g id="Слой_1-2" data-name="Слой 1"><path class="cls-1" d="M154.62,41.48a40.05,40.05,0,0,1-.92,9.18,18.3,18.3,0,0,1-1.82,4.74l-.65.84h33.46V28.52H154.62Zm3.09,10.24a44.35,44.35,0,0,0,1-10.21V33H180V51.81H157.67Z"/><path class="cls-1" d="M122.32,30.86c-1.58-1.63-3.87-2.52-7-2.52H97.05a8.38,8.38,0,0,0-8.87,7.42l0,.93H124.7l-.06-.93A8.9,8.9,0,0,0,122.32,30.86Z"/><path class="cls-1" d="M309.3,16.77l-17,28.57L275.35,16.77H256V36l-.24-3.49a17.66,17.66,0,0,0-4.85-10.31c-4-4-9.54-5.39-15.56-5.39H217.79c-5.39,0-10.4,1.2-14.31,4.3-3.16,2.43-6.13,6.11-5.86,10.73l.15.94v6.84h.14L197.09,41V16.77H141.61V42.21a22,22,0,0,1-1.1,7.61,6.45,6.45,0,0,1-1,1.75l-.31.24h-2.15l.12-1.44v-14a18.42,18.42,0,0,0-6.14-14.06c-4.39-4-10.17-5.66-16.64-5.66H97.64c-6.42,0-12.12,1.91-16.53,6.2A19.19,19.19,0,0,0,75,37v3.86H59.74V46.5c0,2.41-.69,3-1,3.32-.66.48-2.81,1.34-7.76,1.34H26.4c-5.44,0-7.4-1-7.85-1.48s-1.43-2-1.43-7.22V26.15c0-5.51,1.11-7.32,1.47-7.68S21,17,26.4,17H50.94c5,0,7.13.92,7.89,1.54.26.22.91.83.91,3.1V27.3H76.86V21.62c0-6.61-2.18-12.43-7.23-16.41C64.79,1.41,58.23,0,50.86,0H26.32c-8,0-15.2,1.62-19.95,6.35S0,18.22,0,26.15V42.46c0,7.87,1.6,15,6.36,19.6s11.92,6.07,20,6.07H50.86c7.69,0,14.56-1.33,19.26-5.26a18,18,0,0,0,5.2-7.26l.52-1.94.78,2.75c3.14,7.76,10.69,11.71,21.18,11.71h19.54a21.7,21.7,0,0,0,12.21-3.29l2.84-2.45V74h16.9V68h35.58v6h16.9V64.62l2.61,1.48A26.09,26.09,0,0,0,214.83,68h22.6l1.43-.21V68H273.1V44.49l14,23.48h10.3L311.5,44.49V68H329l.23-51.2ZM72.74,46.5c0,5.63-1.66,10-5.18,13s-9,4.25-16.4,4.25H26.63c-7.68,0-13.44-1.51-16.88-4.83s-5-9-5-16.42V26.15C4.72,18.66,6.32,13,9.8,9.5S19,4.42,26.63,4.42H51.16c14,0,21.58,5.62,21.58,17.2v1.22H64.46V21.62c0-3.14-.9-5.21-2.54-6.52-2-1.63-5.41-2.57-10.68-2.57H26.7c-5.64,0-9.12,1-10.88,2.75S13,20.45,13,26.15V42.46c0,5.48,1.06,8.8,2.8,10.44s5.26,2.7,10.9,2.7H51.24c5.17,0,8.55-.85,10.4-2.24s2.82-3.52,2.82-6.86V45.27h8.28ZM133.08,44H88v2.64c0,3.65,1,6.09,2.71,7.64,1.54,1.33,3.84,2.11,7.11,2.11h19c2.9,0,4.87-.65,6.06-1.74a5.49,5.49,0,0,0,1.91-4.29v-2h8.28v2a12.59,12.59,0,0,1-3.29,8.72c-2.83,3.14-6.95,4.62-12.14,4.62H98.11c-12,0-18.35-5.41-18.35-16.26V37a14.73,14.73,0,0,1,4.72-11c3.47-3.33,8-5,13.47-5h16.78c5.7,0,10.31,1.48,13.67,4.53a14,14,0,0,1,4.68,10.78Zm-13,4.44v1.92a1.06,1.06,0,0,1-.43,1c0,.07-.75.61-3.1.61h-19c-2.63,0-3.72-.62-4.17-1a3.69,3.69,0,0,1-1.08-2.49Zm77.6,21.08h-8v-6H145.18v6h-8V56.24h3.92l1.08-.74A9.82,9.82,0,0,0,145,51.33a25.86,25.86,0,0,0,1.37-9.13v-21H193v35h4.68Zm54.22-6h-8.28V61.85l-1.14.68a10.81,10.81,0,0,1-4.72,1h-22.6c-4.55,0-8.16-.82-10.74-2.69s-3.9-4.92-3.9-8.7V47.31a9.52,9.52,0,0,1,3.36-7.67c2.47-2,6-3,10.33-3h23.35a13.28,13.28,0,0,1,5.55,1l.51.29V35.61a6.47,6.47,0,0,0-1.84-4.92c-1.4-1.41-3.55-2.17-6.66-2.17H219.58c-4,0-6.45.86-7.77,2.21a2.37,2.37,0,0,0-.49.72l-.41,1.19v2.5h-8.42V32.47l-.11-1.93c.31-2.16,1.79-4.16,4.11-6,2.89-2.28,6.79-3.34,11.6-3.34h17.52c5.38,0,9.63,1.29,12.44,4.07,2.61,2.62,3.81,6.43,3.81,11.21Zm72.64,0h-8.27V28.44l-21,35.09H290L269,28.44V63.53H260.7V21.21h12.43L292.54,54l19.57-32.8h12.4Z"/><path class="cls-1" d="M241.85,45.51c-1.12-.92-3-1.5-5.76-1.5h-19.8c-3.54,0-5.46.48-6.27,1.07s-1.27,1.61-1.27,3.51V51.5c0,1.71.49,2.67,1.23,3.22,1.06.82,3.08,1.37,6.31,1.37h19.8c5.32,0,7.5-2.08,7.5-6.05C243.59,47.82,243,46.4,241.85,45.51Zm-3.07,5.43-.08.21-.09.06a6.9,6.9,0,0,1-2.83.43H216a13.39,13.39,0,0,1-2.76-.21l-.34-.08V48.64l.27,0a27.54,27.54,0,0,1,2.83-.14h19.79a6.83,6.83,0,0,1,2.83.43l.12,0,.05.21a4.33,4.33,0,0,1,.08.91A3.93,3.93,0,0,1,238.78,50.94Z"/><path class="cls-2" d="M64.46,46.5c0,3.34-1,5.53-2.82,6.86s-5.23,2.24-10.4,2.24H26.7c-5.64,0-9.14-1-10.9-2.7s-2.8-5-2.8-10.44V26.15c0-5.7,1.06-9.16,2.82-10.87s5.24-2.75,10.88-2.75H51.24c5.27,0,8.72.94,10.68,2.57,1.64,1.31,2.54,3.38,2.54,6.52v1.22h8.28V21.62c0-11.58-7.63-17.2-21.58-17.2H26.63C19,4.42,13.31,6,9.8,9.5S4.72,18.66,4.72,26.15V42.46c0,7.47,1.57,13.08,5,16.42s9.2,4.83,16.88,4.83H51.16c7.36,0,12.93-1.32,16.4-4.25s5.18-7.33,5.18-13V45.27H64.46Z"/><path class="cls-3" d="M128.4,25.55C125,22.5,120.43,21,114.73,21H98c-5.48,0-10,1.65-13.47,5a14.73,14.73,0,0,0-4.72,11V47.45c0,10.85,6.4,16.26,18.35,16.26h19.54c5.19,0,9.31-1.48,12.14-4.62a12.59,12.59,0,0,0,3.29-8.72v-2H124.8v2a5.49,5.49,0,0,1-1.91,4.29c-1.19,1.09-3.16,1.74-6.06,1.74h-19c-3.27,0-5.57-.78-7.11-2.11C89,52.74,88,50.3,88,46.65V44h45V36.33A14,14,0,0,0,128.4,25.55ZM88.14,36.69l0-.93a8.38,8.38,0,0,1,8.87-7.42H115.3c3.15,0,5.44.89,7,2.52a8.9,8.9,0,0,1,2.32,4.9l.06.93Z"/><path class="cls-4" d="M193,21.21H146.34v21A25.86,25.86,0,0,1,145,51.33a9.82,9.82,0,0,1-2.82,4.17l-1.08.74h-3.92V69.53h8v-6h44.44v6h8V56.24H193Zm-8.28,35H151.23l.65-.84a18.3,18.3,0,0,0,1.82-4.74,40.05,40.05,0,0,0,.92-9.18v-13h30.07Z"/><path class="cls-5" d="M235.62,21.21H218.1c-4.81,0-8.71,1.06-11.6,3.34-2.32,1.83-3.8,3.83-4.11,6l.11,1.93v2.67h8.42v-2.5l.41-1.19a2.37,2.37,0,0,1,.49-.72c1.32-1.35,3.79-2.21,7.77-2.21h15.51c3.11,0,5.26.76,6.66,2.17a6.47,6.47,0,0,1,1.84,4.92V38l-.51-.29a13.28,13.28,0,0,0-5.55-1H214.18c-4.35,0-7.86.93-10.33,3a9.52,9.52,0,0,0-3.36,7.67v4.83c0,3.78,1.23,6.79,3.9,8.7s6.19,2.69,10.74,2.69h22.6a10.81,10.81,0,0,0,4.72-1l1.14-.68v1.68h8.28v-27c0-4.78-1.2-8.59-3.81-11.21C245.25,22.5,241,21.21,235.62,21.21Zm.47,34.88h-19.8c-3.23,0-5.25-.55-6.31-1.37-.74-.55-1.23-1.51-1.23-3.22V48.59c0-1.9.54-2.94,1.27-3.51S212.75,44,216.29,44h19.8c2.76,0,4.64.58,5.76,1.5s1.74,2.31,1.74,4.53C243.59,54,241.41,56.09,236.09,56.09Z"/><polygon class="cls-6" points="292.55 54.01 273.13 21.21 260.7 21.21 260.7 63.53 268.97 63.53 268.97 28.44 289.98 63.53 295.24 63.53 316.25 28.44 316.25 63.53 324.51 63.53 324.51 21.21 312.11 21.21 292.55 54.01"/></g></g></svg>