<svg xmlns="http://www.w3.org/2000/svg" xmlns:xlink="http://www.w3.org/1999/xlink" viewBox="0 0 320.14 88.07"><defs><style>.cls-1{fill:url(#Безымянный_градиент_42);}.cls-2{fill:url(#Безымянный_градиент_42-2);}.cls-3{fill:url(#Безымянный_градиент_42-3);}.cls-4{fill:#fff;}.cls-5{fill:url(#Безымянный_градиент_42-4);}.cls-6{fill:url(#Безымянный_градиент_42-5);}</style><linearGradient id="Безымянный_градиент_42" x1="-5.16" y1="35.57" x2="335.76" y2="106.33" gradientUnits="userSpaceOnUse"><stop offset="0.04" stop-color="#0c0"/><stop offset="0.28" stop-color="#00c603"/><stop offset="0.61" stop-color="#00b50d"/><stop offset="0.95" stop-color="#009b1b"/></linearGradient><linearGradient id="Безымянный_градиент_42-2" x1="-5.57" y1="37.55" x2="335.35" y2="108.31" xlink:href="#Безымянный_градиент_42"/><linearGradient id="Безымянный_градиент_42-3" x1="-0.41" y1="12.67" x2="340.51" y2="83.43" xlink:href="#Безымянный_градиент_42"/><linearGradient id="Безымянный_градиент_42-4" x1="-0.93" y1="15.18" x2="339.99" y2="85.94" xlink:href="#Безымянный_градиент_42"/><linearGradient id="Безымянный_градиент_42-5" x1="1.98" y1="1.14" x2="342.91" y2="71.9" xlink:href="#Безымянный_градиент_42"/></defs><title>sedam text</title><g id="Слой_2" data-name="Слой 2"><g id="Слой_1-2" data-name="Слой 1"><path class="cls-1" d="M34,22.6a10.07,10.07,0,0,1,6.38-1.75c5.05,0,9,1.54,11.75,4.61L62.82,13.37A23.5,23.5,0,0,0,54.36,7,30.63,30.63,0,0,0,41,4.36a34.41,34.41,0,0,0-12.09,2A27.29,27.29,0,0,0,20,11.62a21.55,21.55,0,0,0-5.5,7.58,23.31,23.31,0,0,0-1.86,9.12,19.11,19.11,0,0,0,2,9,26.34,26.34,0,0,0,4.73,6.59,37.9,37.9,0,0,0,6.15,4.95c2.2,1.43,4.29,2.75,6.16,4.06a36.43,36.43,0,0,1,4.72,4,6.55,6.55,0,0,1,1.94,4.41,4.88,4.88,0,0,1-2.6,4.27A12.39,12.39,0,0,1,29.53,67a15.61,15.61,0,0,1-7.91-2,16.83,16.83,0,0,1-5.94-6.15L4.36,70A15.36,15.36,0,0,0,8,75.57a25.27,25.27,0,0,0,5.71,4.29A30.07,30.07,0,0,0,21,82.6a34,34,0,0,0,8.35,1A35.79,35.79,0,0,0,41,81.84a26.82,26.82,0,0,0,8.9-5,21.38,21.38,0,0,0,5.6-7.58,23.43,23.43,0,0,0,2-9.67,18.18,18.18,0,0,0-2-8.79,24.93,24.93,0,0,0-4.72-6.27A36,36,0,0,0,44.58,40c-2.2-1.32-4.28-2.64-6.15-3.85a29.18,29.18,0,0,1-4.73-3.84,6.43,6.43,0,0,1-2-4.73A6,6,0,0,1,34,22.6Z"/><path class="cls-2" d="M107.35,34.25a15.69,15.69,0,0,0-5.93-2.3,40.6,40.6,0,0,0-7.58-.66A30.55,30.55,0,0,0,81,33.92a29,29,0,0,0-9.78,7,33.09,33.09,0,0,0-8.35,21.86c0,6.71,2,11.87,5.93,15.39s9.56,5.27,16.93,5.27a29.44,29.44,0,0,0,13.18-2.63,33.69,33.69,0,0,0,8.9-6.27l.33-.11-6.59-8.79a27.79,27.79,0,0,1-5.6,3.19A17.69,17.69,0,0,1,89,70.19a12.74,12.74,0,0,1-6.59-1.43,6.6,6.6,0,0,1-3.19-4.4,77.81,77.81,0,0,0,12.64-1.65,44.42,44.42,0,0,0,10.66-3.62,20.44,20.44,0,0,0,7.25-5.83A13.17,13.17,0,0,0,112.41,45a14.48,14.48,0,0,0-1.32-6.48A10.84,10.84,0,0,0,107.35,34.25ZM94.61,51.07a14.27,14.27,0,0,1-3.85,2,30.93,30.93,0,0,1-5.27,1.32,55.66,55.66,0,0,1-5.83.66,13,13,0,0,1,4.4-7,12.82,12.82,0,0,1,8.35-3.3,3.94,3.94,0,0,1,2.64,1,3.18,3.18,0,0,1,1.09,2.53A3.6,3.6,0,0,1,94.61,51.07Z"/><path class="cls-3" d="M155.51,32.16a15.19,15.19,0,0,0-3.3-.65c-1.2-.11-2.3-.11-3.29-.11a28.66,28.66,0,0,0-13.63,3.18,31.88,31.88,0,0,0-10,8.24A36.77,36.77,0,0,0,119,54.36a40.35,40.35,0,0,0-2.09,12.86q0,7.41,3.3,11.87c2.19,3,5.49,4.5,9.78,4.5a18.06,18.06,0,0,0,6.59-1.1,23.57,23.57,0,0,0,5.27-2.74A22.59,22.59,0,0,0,146.06,76q1.81-2.15,3.3-4.28l.33-.11-1.76,10.54h15.93L176.72,5.24H160.24Zm-3.85,22.09c-.44,1-1.09,2.31-2,4A32.76,32.76,0,0,1,146.5,63a35.4,35.4,0,0,1-3.85,4.18A6.1,6.1,0,0,1,138.48,69l.11.11c-1.87,0-3.19-.66-3.85-2a11,11,0,0,1-1-4.94,18.85,18.85,0,0,1,1-6.05,17.29,17.29,0,0,1,2.86-5.27,13.58,13.58,0,0,1,4.28-3.63,11.17,11.17,0,0,1,5.39-1.32,12.58,12.58,0,0,1,3.08.33,12.45,12.45,0,0,1,2.85,1.21Z"/><path class="cls-4" d="M92.41,44.69A12.82,12.82,0,0,0,84.06,48a13,13,0,0,0-4.4,7,55.66,55.66,0,0,0,5.83-.66A30.93,30.93,0,0,0,90.76,53a14,14,0,0,0,3.85-2,3.6,3.6,0,0,0,1.53-2.86,3.18,3.18,0,0,0-1.09-2.53A3.94,3.94,0,0,0,92.41,44.69Z"/><path class="cls-4" d="M180.05,2.42A4.36,4.36,0,0,0,176.72.88H160.24a4.36,4.36,0,0,0-4.3,3.61l-4,22.62c-1.15-.08-2.19-.08-3.05-.08a33.3,33.3,0,0,0-15.67,3.69,36.27,36.27,0,0,0-11.35,9.37,40.9,40.9,0,0,0-5.6,9.24,19.43,19.43,0,0,0,.47-4.31A18.74,18.74,0,0,0,115,36.59a15.2,15.2,0,0,0-5.22-6,20.36,20.36,0,0,0-7.54-3,44.86,44.86,0,0,0-8.39-.74,34.88,34.88,0,0,0-14.67,3,33.34,33.34,0,0,0-11.23,8.1,37,37,0,0,0-7,11.45c-.21.56-.38,1.14-.57,1.71a17.09,17.09,0,0,0-1.11-2.46,28.77,28.77,0,0,0-5.56-7.35,40.38,40.38,0,0,0-6.9-5.18c-1.89-1.13-3.86-2.37-6-3.77a24.35,24.35,0,0,1-4-3.27,2,2,0,0,1-.7-1.64A1.6,1.6,0,0,1,36.73,26a6.13,6.13,0,0,1,3.68-.83c3.82,0,6.6,1,8.5,3.16a4.38,4.38,0,0,0,3.25,1.45h0a4.37,4.37,0,0,0,3.26-1.47L66.1,16.26a4.35,4.35,0,0,0,.16-5.57,27.49,27.49,0,0,0-10-7.61A34.86,34.86,0,0,0,41,0,38.67,38.67,0,0,0,27.34,2.26,31.72,31.72,0,0,0,17,8.39a26.09,26.09,0,0,0-6.58,9.11A27.77,27.77,0,0,0,8.24,28.32a23.36,23.36,0,0,0,2.47,11A30.87,30.87,0,0,0,16.22,47a43.38,43.38,0,0,0,6.86,5.52l1.41.9c1.65,1.07,3.21,2.08,4.61,3.07A31.36,31.36,0,0,1,33.25,60a2.19,2.19,0,0,1,.65,1.34c0,.28-.13.33-.36.46a8.11,8.11,0,0,1-4,.87,11.22,11.22,0,0,1-5.75-1.41,12.58,12.58,0,0,1-4.36-4.61,4.36,4.36,0,0,0-3.18-2.08,5.25,5.25,0,0,0-.56,0,4.37,4.37,0,0,0-3,1.24L1.31,66.85a4.36,4.36,0,0,0-1,4.62A19.78,19.78,0,0,0,4.9,78.66a29.72,29.72,0,0,0,6.7,5,34.48,34.48,0,0,0,8.3,3.16A38.44,38.44,0,0,0,29.31,88a39.71,39.71,0,0,0,13.06-2,31,31,0,0,0,10.34-5.77,25.8,25.8,0,0,0,6.74-9.11s0-.09,0-.13a21.18,21.18,0,0,0,6.38,10.52c4.77,4.23,11.43,6.38,19.83,6.38a33.8,33.8,0,0,0,15.13-3.1,38.94,38.94,0,0,0,9.4-6.46,4.35,4.35,0,0,0,1.37-6.43L105,63.06l-.2-.25a24.61,24.61,0,0,0,8.42-6.9,17.25,17.25,0,0,0,1.46-2.28,45.07,45.07,0,0,0-2.12,13.59c0,5.88,1.39,10.74,4.15,14.46,3,4.11,7.63,6.28,13.29,6.28a22.18,22.18,0,0,0,8.17-1.4,28.9,28.9,0,0,0,5.65-2.86,4.41,4.41,0,0,0,4.09,2.83h15.93a4.38,4.38,0,0,0,4.31-3.65L181,6A4.37,4.37,0,0,0,180.05,2.42ZM55.46,69.31a21.38,21.38,0,0,1-5.6,7.58,26.82,26.82,0,0,1-8.9,5,35.79,35.79,0,0,1-11.65,1.75,34,34,0,0,1-8.35-1,30.07,30.07,0,0,1-7.26-2.74A25.27,25.27,0,0,1,8,75.57,15.36,15.36,0,0,1,4.36,70l11.32-11.1A16.83,16.83,0,0,0,21.62,65a15.61,15.61,0,0,0,7.91,2,12.39,12.39,0,0,0,6.15-1.43,4.88,4.88,0,0,0,2.6-4.27,6.55,6.55,0,0,0-1.94-4.41,36.43,36.43,0,0,0-4.72-4c-1.87-1.31-4-2.63-6.16-4.06a37.9,37.9,0,0,1-6.15-4.95,26.34,26.34,0,0,1-4.73-6.59,19.11,19.11,0,0,1-2-9,23.31,23.31,0,0,1,1.86-9.12A21.55,21.55,0,0,1,20,11.62a27.29,27.29,0,0,1,8.9-5.28A34.41,34.41,0,0,1,41,4.36,30.63,30.63,0,0,1,54.36,7a23.5,23.5,0,0,1,8.46,6.37L52.16,25.46c-2.74-3.08-6.7-4.61-11.75-4.61A10,10,0,0,0,34,22.61a5.92,5.92,0,0,0-2.3,4.94,6.43,6.43,0,0,0,2,4.73,29.18,29.18,0,0,0,4.73,3.84c1.87,1.21,4,2.53,6.15,3.85a36,36,0,0,1,6.16,4.61,24.93,24.93,0,0,1,4.72,6.27,18.18,18.18,0,0,1,2,8.79A23.43,23.43,0,0,1,55.46,69.31Zm54.31-16.05a20.44,20.44,0,0,1-7.25,5.83,44.42,44.42,0,0,1-10.66,3.62,77.81,77.81,0,0,1-12.64,1.65,6.6,6.6,0,0,0,3.19,4.4A12.74,12.74,0,0,0,89,70.19a17.69,17.69,0,0,0,6.93-1.32,27.79,27.79,0,0,0,5.6-3.19l6.59,8.79-.33.11a33.69,33.69,0,0,1-8.9,6.27,29.44,29.44,0,0,1-13.18,2.63c-7.37,0-13-1.76-16.93-5.27s-5.93-8.68-5.93-15.39A33.09,33.09,0,0,1,71.2,41a29,29,0,0,1,9.78-7,30.55,30.55,0,0,1,12.86-2.63,40.6,40.6,0,0,1,7.58.66,15.69,15.69,0,0,1,5.93,2.3,10.84,10.84,0,0,1,3.74,4.29A14.48,14.48,0,0,1,112.41,45,13.17,13.17,0,0,1,109.77,53.26Zm54.09,28.9H147.93l1.76-10.54-.33.11q-1.49,2.13-3.3,4.28a22.86,22.86,0,0,1-4.17,3.74,23.87,23.87,0,0,1-5.28,2.74,18.06,18.06,0,0,1-6.59,1.1c-4.29,0-7.59-1.53-9.78-4.5s-3.3-6.93-3.3-11.87A40.35,40.35,0,0,1,119,54.36a36.77,36.77,0,0,1,6.26-11.54,31.88,31.88,0,0,1,10-8.24,28.66,28.66,0,0,1,13.63-3.18c1,0,2.09,0,3.29.11a15.19,15.19,0,0,1,3.3.65l4.73-26.92h16.48Z"/><path class="cls-4" d="M147.27,45.9a11.1,11.1,0,0,0-5.38,1.32,13.5,13.5,0,0,0-4.29,3.63,17.29,17.29,0,0,0-2.86,5.27,18.85,18.85,0,0,0-1,6.05,11,11,0,0,0,1,4.94c.66,1.32,2,2,3.85,2l-.11-.11a6.1,6.1,0,0,0,4.17-1.76A35.4,35.4,0,0,0,146.5,63a32.76,32.76,0,0,0,3.19-4.83c.88-1.65,1.54-3,2-4l1.54-6.81a12.27,12.27,0,0,0-2.85-1.21A12.58,12.58,0,0,0,147.27,45.9Zm.24,7c-.4.85-1,2-1.67,3.29a29.46,29.46,0,0,1-2.77,4.2A31.27,31.27,0,0,1,139.71,64a1.75,1.75,0,0,1-1.23.62h0a8.21,8.21,0,0,1-.31-2.45,14.64,14.64,0,0,1,.76-4.67,13.08,13.08,0,0,1,2.15-4,9.1,9.1,0,0,1,2.91-2.47,6.81,6.81,0,0,1,3.33-.81c.29,0,.56,0,.82,0Z"/><path class="cls-5" d="M223.78,32.82c-1.76-.44-3.63-.76-5.61-1.09a35.8,35.8,0,0,0-5.93-.44,37,37,0,0,0-14.18,2.63,31.79,31.79,0,0,0-11,7.37,33.21,33.21,0,0,0-7.14,11.2,39.21,39.21,0,0,0-2.53,14.18,26,26,0,0,0,.77,6.7,16.12,16.12,0,0,0,2.42,5.39,11.38,11.38,0,0,0,4.29,3.62,13.8,13.8,0,0,0,6.26,1.32,15.32,15.32,0,0,0,5.93-1.1,20.74,20.74,0,0,0,5.06-3,28.07,28.07,0,0,0,4.17-4,45.42,45.42,0,0,0,3.08-4.06l-1.54,10.54H224l7.58-46.26a16.89,16.89,0,0,0-3.19-1.65A32.91,32.91,0,0,0,223.78,32.82ZM212.24,53c-.66,1.54-1.43,3.3-2.31,5.17a26.78,26.78,0,0,1-3.19,5.16,25.4,25.4,0,0,1-3.73,4,6.2,6.2,0,0,1-4,1.65c-3.19,0-4.83-2.31-4.83-6.81a17.29,17.29,0,0,1,1.1-6.38,16,16,0,0,1,3.07-5.16,14.9,14.9,0,0,1,4.73-3.41,13.87,13.87,0,0,1,6-1.32,19,19,0,0,1,4.29.44Z"/><path class="cls-4" d="M212.24,31.29a35.8,35.8,0,0,1,5.93.44c2,.33,3.85.65,5.61,1.09a32.91,32.91,0,0,1,4.61,1.43,16.89,16.89,0,0,1,3.19,1.65L224,82.16H207.84l1.54-10.54a45.42,45.42,0,0,1-3.08,4.06,28.07,28.07,0,0,1-4.17,4,20.74,20.74,0,0,1-5.06,3,15.32,15.32,0,0,1-5.93,1.1,13.8,13.8,0,0,1-6.26-1.32,11.38,11.38,0,0,1-4.29-3.62,16.12,16.12,0,0,1-2.42-5.39,26,26,0,0,1-.77-6.7,39.21,39.21,0,0,1,2.53-14.18,33.21,33.21,0,0,1,7.14-11.2,31.79,31.79,0,0,1,11-7.37,37,37,0,0,1,14.18-2.63M199.05,69a6.2,6.2,0,0,0,4-1.65,25.4,25.4,0,0,0,3.73-4,26.78,26.78,0,0,0,3.19-5.16c.88-1.87,1.65-3.63,2.31-5.17l1.21-6.7a19,19,0,0,0-4.29-.44,13.87,13.87,0,0,0-6,1.32,14.9,14.9,0,0,0-4.73,3.41,16,16,0,0,0-3.07,5.16,17.29,17.29,0,0,0-1.1,6.38c0,4.5,1.64,6.81,4.83,6.81m13.19-42.06a41.43,41.43,0,0,0-15.83,3,35.84,35.84,0,0,0-12.47,8.36,37.54,37.54,0,0,0-8.08,12.68A43.63,43.63,0,0,0,173,66.67a30.7,30.7,0,0,0,.91,7.82,20.52,20.52,0,0,0,3.09,6.8,15.82,15.82,0,0,0,5.89,5,18.2,18.2,0,0,0,8.21,1.78,19.55,19.55,0,0,0,7.59-1.43,25,25,0,0,0,5.08-2.81,4.43,4.43,0,0,0,.73,1.19,4.37,4.37,0,0,0,3.3,1.51H224a4.36,4.36,0,0,0,4.3-3.66l7.58-46.26a4.36,4.36,0,0,0-1.77-4.26,20.53,20.53,0,0,0-4-2.12,37.39,37.39,0,0,0-5.24-1.64c-2-.49-4-.85-5.94-1.17a40.92,40.92,0,0,0-6.65-.5ZM198.93,64.61a6.1,6.1,0,0,1-.35-2.44,12.85,12.85,0,0,1,.8-4.8,11.82,11.82,0,0,1,2.22-3.79A10.54,10.54,0,0,1,205,51.17a9.22,9.22,0,0,1,3.32-.87L208,51.78c-.54,1.26-1.24,2.85-2.05,4.57a22.43,22.43,0,0,1-2.67,4.33,21.46,21.46,0,0,1-3.09,3.3,2.38,2.38,0,0,1-1.17.64Z"/><path class="cls-6" d="M315.23,38.1a8,8,0,0,0-1.87-3.41,8.94,8.94,0,0,0-3.52-2.31,14.84,14.84,0,0,0-5.27-.87,17.21,17.21,0,0,0-6.48,1.2,21.81,21.81,0,0,0-5.17,3,22.41,22.41,0,0,0-3.95,4,31.1,31.1,0,0,0-2.75,4.28V41.18a13.83,13.83,0,0,0-.55-3.63A7.58,7.58,0,0,0,284,34.47a8.58,8.58,0,0,0-3-2.19,10.89,10.89,0,0,0-4.5-.88,16.07,16.07,0,0,0-5.61,1A18.82,18.82,0,0,0,266.11,35a24.22,24.22,0,0,0-3.85,3.63,38.74,38.74,0,0,0-2.85,3.73L261.05,33H244.57l-8.68,49.45h16.48l3.52-20.32c.66-1.21,1.43-2.75,2.31-4.51a55.38,55.38,0,0,1,2.85-4.95,23.84,23.84,0,0,1,3.08-4,4.54,4.54,0,0,1,3.08-1.65A1.6,1.6,0,0,1,269,48.43a10.85,10.85,0,0,1,.33,2.64v1.86a5.1,5.1,0,0,1-.22,1.54l-4.95,28h16.48l3.41-20q1.16-2.46,2.31-5.27a30.75,30.75,0,0,1,2.64-5A17.7,17.7,0,0,1,292,48.43,4.93,4.93,0,0,1,295.45,47a1.92,1.92,0,0,1,2,1.32,7.39,7.39,0,0,1,.44,2.64,18.88,18.88,0,0,1-.33,3.73l-5,27.91,17-.44,5.71-32.3q.17-1.48.33-3.63c.11-1.43.11-2.75.11-4A17.39,17.39,0,0,0,315.23,38.1Z"/><path class="cls-4" d="M276.55,31.4a10.89,10.89,0,0,1,4.5.88,8.58,8.58,0,0,1,3,2.19,7.58,7.58,0,0,1,1.65,3.08,13.83,13.83,0,0,1,.55,3.63v2.74A31.1,31.1,0,0,1,289,39.64a22.41,22.41,0,0,1,3.95-4,21.81,21.81,0,0,1,5.17-3,17.21,17.21,0,0,1,6.48-1.2,14.84,14.84,0,0,1,5.27.87,8.94,8.94,0,0,1,3.52,2.31,8,8,0,0,1,1.87,3.41,17.39,17.39,0,0,1,.55,4.17c0,1.21,0,2.53-.11,4s-.22,2.64-.33,3.63l-5.71,32.3-17,.44,5-27.91a18.88,18.88,0,0,0,.33-3.73,7.39,7.39,0,0,0-.44-2.64,1.92,1.92,0,0,0-2-1.32A4.93,4.93,0,0,0,292,48.43,18,18,0,0,0,289,52.17a30.75,30.75,0,0,0-2.64,5Q285.18,60,284,62.49l-3.41,20H264.13l4.95-28a5.1,5.1,0,0,0,.22-1.54V51.07a10.85,10.85,0,0,0-.33-2.64,1.6,1.6,0,0,0-1.76-1.32,4.54,4.54,0,0,0-3.08,1.65,23.84,23.84,0,0,0-3.08,4,55.38,55.38,0,0,0-2.85,4.95c-.88,1.76-1.65,3.3-2.31,4.51l-3.52,20.32H235.89L244.57,33h16.48l-1.64,9.34a38.74,38.74,0,0,1,2.85-3.73A24.22,24.22,0,0,1,266.11,35a18.82,18.82,0,0,1,4.83-2.64,16.07,16.07,0,0,1,5.61-1m0-4.37a20.25,20.25,0,0,0-7.14,1.27,23.51,23.51,0,0,0-4.7,2.37,4.25,4.25,0,0,0-.31-.43,4.37,4.37,0,0,0-3.35-1.56H244.57a4.37,4.37,0,0,0-4.3,3.61l-8.68,49.45a4.37,4.37,0,0,0,4.3,5.12h16.48a4.36,4.36,0,0,0,4.3-3.62l3.4-19.63c.62-1.17,1.31-2.55,2-4a46.63,46.63,0,0,1,2.37-4.14l-4.64,26.27a4.37,4.37,0,0,0,4.3,5.12h16.48a4.36,4.36,0,0,0,4.3-3.63l3.31-19.43c.71-1.53,1.43-3.18,2.14-4.92a27,27,0,0,1,2.28-4.36c.23-.35.45-.68.68-1l-.06.3s0,.07,0,.1L288.3,81.84A4.36,4.36,0,0,0,292.59,87h.11l17-.44a4.37,4.37,0,0,0,4.18-3.61l5.72-32.3c0-.1,0-.19,0-.29.11-1,.23-2.31.34-3.76s.12-3,.12-4.3a21.65,21.65,0,0,0-.68-5.23,12.26,12.26,0,0,0-2.84-5.25,13.2,13.2,0,0,0-5.21-3.48,19.16,19.16,0,0,0-6.84-1.17,21.3,21.3,0,0,0-8.14,1.54,25.89,25.89,0,0,0-6.2,3.57q-.8.63-1.53,1.29a12.38,12.38,0,0,0-1.4-1.94,12.93,12.93,0,0,0-4.44-3.3A15.39,15.39,0,0,0,276.55,27Z"/></g></g></svg>