<svg xmlns="http://www.w3.org/2000/svg" xmlns:xlink="http://www.w3.org/1999/xlink" viewBox="0 0 220.14 151.21"><defs><style>.cls-1{fill:#fff;}.cls-2{fill:url(#Безымянный_градиент_68);}.cls-3{fill-rule:evenodd;fill:url(#Безымянный_градиент_48);}.cls-4{fill:url(#Безымянный_градиент_42);}.cls-5{fill:url(#Безымянный_градиент_42-2);}.cls-6{fill:url(#Безымянный_градиент_42-3);}.cls-7{fill:url(#Безымянный_градиент_42-4);}.cls-8{fill:url(#Безымянный_градиент_42-5);}</style><linearGradient id="Безымянный_градиент_68" x1="47.14" y1="57.57" x2="183.75" y2="113.19" gradientUnits="userSpaceOnUse"><stop offset="0" stop-color="#f03"/><stop offset="1" stop-color="red"/></linearGradient><linearGradient id="Безымянный_градиент_48" x1="48.58" y1="30.03" x2="137.21" y2="61.11" gradientUnits="userSpaceOnUse"><stop offset="0.04" stop-color="#0c0"/><stop offset="0.95" stop-color="#009b1b"/></linearGradient><linearGradient id="Безымянный_градиент_42" x1="-3.55" y1="115.11" x2="230.89" y2="163.76" gradientUnits="userSpaceOnUse"><stop offset="0.04" stop-color="#0c0"/><stop offset="0.28" stop-color="#00c603"/><stop offset="0.61" stop-color="#00b50d"/><stop offset="0.95" stop-color="#009b1b"/></linearGradient><linearGradient id="Безымянный_градиент_42-2" x1="-3.83" y1="116.47" x2="230.6" y2="165.13" xlink:href="#Безымянный_градиент_42"/><linearGradient id="Безымянный_градиент_42-3" x1="-0.28" y1="99.36" x2="234.15" y2="148.02" xlink:href="#Безымянный_градиент_42"/><linearGradient id="Безымянный_градиент_42-4" x1="-0.64" y1="101.09" x2="233.8" y2="149.74" xlink:href="#Безымянный_градиент_42"/><linearGradient id="Безымянный_градиент_42-5" x1="1.36" y1="91.43" x2="235.8" y2="140.09" xlink:href="#Безымянный_градиент_42"/></defs><title>sedam logo</title><g id="Слой_2" data-name="Слой 2"><g id="Слой_1-2" data-name="Слой 1"><path class="cls-1" d="M186.75,72.68c-.74-17.76-8.2-33.07-20.45-42-11.66-8.52-25-13.21-37.41-13.21a46,46,0,0,0-10.8,1.28,22.74,22.74,0,0,1,14.27-5.18,89.5,89.5,0,0,1,12,1.48,25.65,25.65,0,0,0-11-5.94c-14.91-4-32.54,1.45-36.87,13.59C95.8,10.17,84.75,5.79,84.75,5.79a45.11,45.11,0,0,1-.41,16.51,22.78,22.78,0,0,1-1.93,3.89S70.58,3.78,59.18.4a13.31,13.31,0,0,0-5.4-.23c-3.38.47-5.05,6.76-4.3,12.07.72,5,3.7,10.37,6.76,10.53,2.06.11,6.57,2.58,8.38,3.86a21,21,0,0,1,5.18,5.89C63.07,32,52.41,35.46,43.88,46.4c0,0,6.13-1.45,9.47-2.3a14.38,14.38,0,0,1,3.9-.45A56.59,56.59,0,0,0,38.66,65.47C33.51,76.17,27.48,98.06,45,124.38a55.35,55.35,0,0,0,25.11,20.33,83.58,83.58,0,0,0,32.34,6.12c22.26,0,44.55-7.32,58.17-19.1a75.62,75.62,0,0,0,20.44-28A72.73,72.73,0,0,0,186.75,72.68Z"/><path class="cls-2" d="M183.74,72.46a63.25,63.25,0,0,0-.92-8.21A58.7,58.7,0,0,0,180.35,55a53.22,53.22,0,0,0-2.45-5.74,46.3,46.3,0,0,0-6.75-10.07A41.2,41.2,0,0,0,166.88,35c-.76-.65-1.54-1.26-2.35-1.85s-1.44-1-2.17-1.52l-.72-.48c-.5-.33-1-.65-1.49-1-.29-.19-.59-.36-.88-.53l-1.38-.83-.95-.52c-.45-.25-.9-.5-1.36-.74l-1-.5-1.36-.67-1-.47-1.39-.61-1-.42c-.48-.2-1-.39-1.45-.57l-.94-.36c-.54-.2-1.09-.38-1.64-.57l-.77-.26c-.8-.25-1.61-.49-2.41-.71l-.26-.07-2.17-.54-.84-.17c-.54-.11-1.07-.23-1.6-.32l-1-.16-1.48-.22-1-.12-1.44-.14-1-.08-1.42-.06-1,0c-.68,0-1.36,0-2,0h-.2c-.77,0-1.53.07-2.3.14h-.1q-1.14.11-2.28.27l-.29,0c-.73.11-1.45.25-2.17.4l-.36.07c-.71.15-1.42.33-2.12.52l-.34.1c-.72.2-1.42.42-2.12.66l-.26.09-.49.18-.31.11,0,0a29.61,29.61,0,0,0-3.77,7.2c-1.63,4.39-3.55,7.38-6.17,7.78a20.76,20.76,0,0,1,8.1,2.79C128.4,50.37,130.49,72,130.49,72s-9.29-9.62-10.61-10.64c-3-2.27-9.46-6-13.81-6.55s-7.53,0-9.47,1.36c-3.08,2.12-4.06,5.36-6.59,9.55C85.53,73.1,79.24,78.77,71.55,77.5c9.24-10.76,3.9-18.76,1.76-18.86-1.4-.07-2.31.75-5.93,7.91-2.58,5.12-8.24,17.6-27,12.54C62.72,63.78,54.48,58.41,65.62,47.61a10.27,10.27,0,0,0-4.15-3.08c-.59.35-1.18.72-1.77,1.1-1.16.77-2.3,1.59-3.43,2.48S54.05,49.94,53,51,50.86,53,49.85,54.14c-.67.74-1.33,1.51-2,2.3S46.62,58.05,46,58.89s-1.17,1.7-1.73,2.58-1.09,1.79-1.6,2.72-1,1.87-1.45,2.83c-7.1,15-7.73,34.67,6.27,55.7l.54.77.6.86c.17.24.35.47.53.7s.43.59.66.88.35.43.53.64.47.59.71.87l.5.57c.27.3.53.6.8.89s.33.34.49.52.56.59.85.88l.5.48.89.86.5.44.94.84.5.41c.33.27.65.55,1,.81l.49.38,1,.79.48.34,1.08.77.5.32c.36.25.73.5,1.1.73l.5.31,1.14.69.51.29,1.17.66.51.27,1.2.62.53.26,1.21.58.56.25,1.21.53.59.24,1.21.5.6.22,1.23.46.64.22,1.21.41.68.21,1.2.37.69.19,1.2.34.73.18c.39.1.79.21,1.19.3l.76.17,1.17.26.8.16,1.15.23.84.14,1.13.2.87.13,1.11.16.9.11,1.09.14.93.09,1.07.11.94.07,1.08.08,1,.06,1.06,0,1,0,1,0h2.36c1.26,0,2.51,0,3.76-.08h.27c1.25,0,2.51-.13,3.76-.23l.26,0c1.25-.11,2.5-.23,3.75-.38l.25,0c1.24-.16,2.48-.33,3.72-.53l.25,0c1.23-.2,2.46-.42,3.67-.67l.24-.05c1.22-.24,2.43-.51,3.63-.8l.23-.06c1.2-.29,2.39-.6,3.56-.93l.22-.06c1.18-.34,2.34-.7,3.49-1.07l.2-.07c1.15-.38,2.29-.77,3.41-1.19l.17-.07q1.69-.63,3.33-1.32l.15-.07c1.09-.46,2.17-.94,3.22-1.44l.12-.06c1.06-.51,2.1-1,3.11-1.57l.09-.06c1-.54,2-1.11,3-1.69l.07,0c1-.59,1.93-1.19,2.84-1.81l0,0c.93-.62,1.83-1.27,2.69-1.93h0c.87-.66,1.71-1.35,2.52-2a73.19,73.19,0,0,0,18.6-24.59A69.64,69.64,0,0,0,180,98.11,68.86,68.86,0,0,0,183.74,72.46Z"/><path class="cls-3" d="M59.18,21.15c2.32.28,6.07,2.47,7.79,4.12a54.33,54.33,0,0,1,6.26,7.9,47.83,47.83,0,0,1,4.61,10.29c-2.9-5.22-4.22-6.19-5.89-7.73A5,5,0,0,0,69,34.65c-8.48-1.45-20.4,9-20.4,9h0c7.18-3.14,15.74-3.82,19.87,4.48h0C58.33,56.84,63.9,66.22,45,78.16c0,0,11,2.39,18.81-10C65.88,64.83,69.32,55,73.77,56c1.83.43,3.26,1.55,4.44,4.51,3.55,8.89-3,15.18-3,15.18C88,72.27,87.8,58.93,93.46,54.69a16.15,16.15,0,0,1,11.92-2.75A31.44,31.44,0,0,1,123.7,62l4.18,4.81h0s-1.51-4.59-2-5.78c-3.53-7.94-8.51-13.32-15.33-18.11-8.62-6.07-21.46-2.82-25.62,2.7,0,0,1-1.94,1.25-2.59,0,0-1.91-6.06-2.59-7.83a62.13,62.13,0,0,0-3.16-6.71c-1.32-2.5-2.65-4.95-4.11-7.36-.66-1-1.33-2.13-2-3.17-1.06-1.6-2.11-3.12-3.3-4.6-.54-.7-1.14-1.43-1.7-2.12C68.17,10,67.07,8.83,66,7.72c-.82-.76-1.65-1.45-2.49-2.13A17.58,17.58,0,0,0,61,3.83C59.64,3,58,2.23,58,2.23h0c1,1.64,2.95,3.45,3.19,8.59C61.58,18.62,59.18,21.15,59.18,21.15ZM86.29,34.89c-.52-1.47-2.38-5.68-2.38-5.68s1.31-2.48,1.74-3.52c1.37-3.28,2-6.76,1.87-12.15L87.3,9.39c5.77,6.68,7.85,10.84,7.51,21.86h0c6-16.79,18.75-23.62,37-21A14.79,14.79,0,0,1,138.9,13l-2.83-.53c-7.61-1.49-14.48,1.57-19.89,5.25-8.2,5.56-8,17.78-16.12,19.64-4,.92-8.69.59-12,3.36C88.09,40.68,87.19,37.41,86.29,34.89ZM56.34,20.41c-2-.14-4.27-3.39-5-8.38-.76-5.3.71-9.42,2.76-9.78s4.65,3.08,5,8.41c.19,2.63.26,9.52-2.77,9.75h0"/><path class="cls-4" d="M23.4,106.19A6.9,6.9,0,0,1,27.79,105c3.47,0,6.19,1.06,8.08,3.18l7.33-8.32a16.21,16.21,0,0,0-5.82-4.38,21.08,21.08,0,0,0-9.22-1.81A23.63,23.63,0,0,0,19.85,95a18.65,18.65,0,0,0-6.12,3.63A14.84,14.84,0,0,0,10,103.85a16,16,0,0,0-1.28,6.27,13.14,13.14,0,0,0,1.36,6.2,17.81,17.81,0,0,0,3.25,4.53,25.53,25.53,0,0,0,4.23,3.4c1.51,1,2.95,1.89,4.23,2.8A24.41,24.41,0,0,1,25,129.77a4.47,4.47,0,0,1,1.33,3,3.36,3.36,0,0,1-1.78,2.94,8.55,8.55,0,0,1-4.23,1,10.75,10.75,0,0,1-5.45-1.36,11.71,11.71,0,0,1-4.08-4.23L3,138.76a10.55,10.55,0,0,0,2.49,3.85,17.21,17.21,0,0,0,3.93,2.95,20.64,20.64,0,0,0,5,1.89,23.58,23.58,0,0,0,5.74.68,24.4,24.4,0,0,0,8-1.21,18.25,18.25,0,0,0,6.12-3.4,14.57,14.57,0,0,0,3.86-5.21,16.21,16.21,0,0,0,1.36-6.65,12.6,12.6,0,0,0-1.36-6,17.25,17.25,0,0,0-3.25-4.31,25.66,25.66,0,0,0-4.23-3.17c-1.51-.91-2.95-1.81-4.23-2.64a19,19,0,0,1-3.25-2.65,4.38,4.38,0,0,1-1.36-3.25A4.09,4.09,0,0,1,23.4,106.19Z"/><path class="cls-5" d="M73.82,114.2a11,11,0,0,0-4.08-1.58,27.23,27.23,0,0,0-5.21-.46A21.14,21.14,0,0,0,55.69,114,19.89,19.89,0,0,0,49,118.81a22.72,22.72,0,0,0-5.74,15c0,4.61,1.36,8.16,4.08,10.58s6.57,3.62,11.64,3.62A20.17,20.17,0,0,0,68,146.24a23.08,23.08,0,0,0,6.12-4.31l.23-.07-4.53-6.05A18.91,18.91,0,0,1,66,138a12,12,0,0,1-4.76.91,8.75,8.75,0,0,1-4.53-1,4.5,4.5,0,0,1-2.19-3,52.91,52.91,0,0,0,8.69-1.14,30.74,30.74,0,0,0,7.33-2.49,14.1,14.1,0,0,0,5-4,9,9,0,0,0,1.82-5.66,9.91,9.91,0,0,0-.91-4.46A7.39,7.39,0,0,0,73.82,114.2Zm-8.76,11.56a9.38,9.38,0,0,1-2.65,1.36,21.36,21.36,0,0,1-3.63.91,36,36,0,0,1-4,.45,9.5,9.5,0,0,1,8.76-7.1,2.74,2.74,0,0,1,1.82.68,2.18,2.18,0,0,1,.75,1.74A2.47,2.47,0,0,1,65.06,125.76Z"/><path class="cls-6" d="M106.94,112.77a10.13,10.13,0,0,0-2.27-.46c-.83-.07-1.59-.07-2.27-.07A19.67,19.67,0,0,0,93,114.43a21.6,21.6,0,0,0-6.87,5.67A25.1,25.1,0,0,0,81.85,128a27.82,27.82,0,0,0-1.44,8.84A13.41,13.41,0,0,0,82.68,145a7.89,7.89,0,0,0,6.72,3.1,12.4,12.4,0,0,0,4.54-.76,16.33,16.33,0,0,0,3.63-1.88,16,16,0,0,0,2.87-2.57c.83-1,1.58-2,2.26-2.95l.23-.08-1.21,7.26h11l8.84-52.9H110.19ZM104.29,128c-.3.68-.75,1.59-1.36,2.72a22.47,22.47,0,0,1-2.19,3.33,23.71,23.71,0,0,1-2.65,2.87,4.18,4.18,0,0,1-2.87,1.21l.08.08a2.71,2.71,0,0,1-2.65-1.36,7.62,7.62,0,0,1-.68-3.4,13,13,0,0,1,.68-4.16,12.23,12.23,0,0,1,2-3.63,9.11,9.11,0,0,1,2.95-2.49,7.6,7.6,0,0,1,3.7-.91,8.76,8.76,0,0,1,2.12.23,8.37,8.37,0,0,1,2,.83Z"/><path class="cls-1" d="M63.54,121.38a9.5,9.5,0,0,0-8.76,7.1,36,36,0,0,0,4-.45,21.36,21.36,0,0,0,3.63-.91,9.38,9.38,0,0,0,2.65-1.36,2.47,2.47,0,0,0,1-2,2.18,2.18,0,0,0-.75-1.74A2.74,2.74,0,0,0,63.54,121.38Z"/><path class="cls-1" d="M123.81,92.31a3,3,0,0,0-2.29-1.06H110.19a3,3,0,0,0-3,2.48l-2.73,15.56c-.79-.05-1.51-.05-2.1-.05a22.76,22.76,0,0,0-10.77,2.54,24.86,24.86,0,0,0-7.81,6.43A28.31,28.31,0,0,0,80,124.57a13,13,0,0,0,.33-3,12.76,12.76,0,0,0-1.23-5.8,10.46,10.46,0,0,0-3.59-4.11,13.91,13.91,0,0,0-5.18-2,30.59,30.59,0,0,0-5.77-.51,24,24,0,0,0-10.09,2.09,22.88,22.88,0,0,0-7.72,5.57,25.29,25.29,0,0,0-4.79,7.87c-.15.39-.26.79-.39,1.18a13,13,0,0,0-.77-1.69,19.7,19.7,0,0,0-3.83-5.06,27.31,27.31,0,0,0-4.74-3.56c-1.3-.78-2.65-1.63-4.15-2.59a16.84,16.84,0,0,1-2.75-2.25,1.4,1.4,0,0,1-.48-1.13,1.09,1.09,0,0,1,.44-1,4.21,4.21,0,0,1,2.53-.57c2.63,0,4.54.71,5.84,2.17a3,3,0,0,0,2.24,1h0a3,3,0,0,0,2.24-1l7.33-8.31A3,3,0,0,0,45.56,98a18.83,18.83,0,0,0-6.87-5.24,24.11,24.11,0,0,0-10.53-2.11A26.63,26.63,0,0,0,18.8,92.2a21.75,21.75,0,0,0-7.09,4.22,17.79,17.79,0,0,0-4.52,6.26,19,19,0,0,0-1.52,7.44,15.93,15.93,0,0,0,1.7,7.58A20.63,20.63,0,0,0,11.16,123a28.77,28.77,0,0,0,4.71,3.8l1,.62c1.14.74,2.21,1.43,3.17,2.11a21.29,21.29,0,0,1,2.86,2.39,1.43,1.43,0,0,1,.44.92c0,.19-.09.22-.24.31a5.62,5.62,0,0,1-2.76.6,7.87,7.87,0,0,1-4-1,8.76,8.76,0,0,1-3-3.17,3,3,0,0,0-2.2-1.44l-.38,0a3,3,0,0,0-2.1.86L.9,136.62a3,3,0,0,0-.71,3.18,13.48,13.48,0,0,0,3.18,4.94A20.57,20.57,0,0,0,8,148.19a23.32,23.32,0,0,0,5.7,2.17,26.3,26.3,0,0,0,6.47.77,27.42,27.42,0,0,0,9-1.37,21.48,21.48,0,0,0,7.11-4,17.73,17.73,0,0,0,4.63-6.26l0-.1a14.6,14.6,0,0,0,4.4,7.24c3.27,2.91,7.85,4.38,13.63,4.38a23.06,23.06,0,0,0,10.4-2.13,26.51,26.51,0,0,0,6.47-4.44,3,3,0,0,0,.94-4.42L72.22,134l-.14-.17a16.92,16.92,0,0,0,5.79-4.75,11.77,11.77,0,0,0,1-1.56,30.79,30.79,0,0,0-1.46,9.34,16.34,16.34,0,0,0,2.86,9.95,10.86,10.86,0,0,0,9.13,4.31,15.21,15.21,0,0,0,5.63-1,19.51,19.51,0,0,0,3.88-2,3.2,3.2,0,0,0,.52.89,3,3,0,0,0,2.29,1.06h11a3,3,0,0,0,3-2.51l8.84-52.89A3,3,0,0,0,123.81,92.31Zm-85.67,46a14.57,14.57,0,0,1-3.86,5.21,18.25,18.25,0,0,1-6.12,3.4,24.4,24.4,0,0,1-8,1.21,23.58,23.58,0,0,1-5.74-.68,20.64,20.64,0,0,1-5-1.89,17.21,17.21,0,0,1-3.93-2.95A10.55,10.55,0,0,1,3,138.76l7.78-7.63a11.71,11.71,0,0,0,4.08,4.23,10.75,10.75,0,0,0,5.45,1.36,8.55,8.55,0,0,0,4.23-1,3.36,3.36,0,0,0,1.78-2.94,4.47,4.47,0,0,0-1.33-3,24.41,24.41,0,0,0-3.25-2.72c-1.28-.91-2.72-1.82-4.23-2.8a25.53,25.53,0,0,1-4.23-3.4A17.81,17.81,0,0,1,10,116.32a13.14,13.14,0,0,1-1.36-6.2A16,16,0,0,1,10,103.85a14.84,14.84,0,0,1,3.78-5.21A18.65,18.65,0,0,1,19.85,95a23.63,23.63,0,0,1,8.31-1.36,21.08,21.08,0,0,1,9.22,1.81,16.21,16.21,0,0,1,5.82,4.38l-7.33,8.32C34,106,31.26,105,27.79,105a6.9,6.9,0,0,0-4.39,1.21,4.09,4.09,0,0,0-1.58,3.4,4.38,4.38,0,0,0,1.36,3.25,19,19,0,0,0,3.25,2.65c1.28.83,2.72,1.73,4.23,2.64a25.66,25.66,0,0,1,4.23,3.17,17.25,17.25,0,0,1,3.25,4.31,12.6,12.6,0,0,1,1.36,6A16.21,16.21,0,0,1,38.14,138.31Zm37.34-11a14.1,14.1,0,0,1-5,4,30.74,30.74,0,0,1-7.33,2.49,52.91,52.91,0,0,1-8.69,1.14,4.5,4.5,0,0,0,2.19,3,8.75,8.75,0,0,0,4.53,1A12,12,0,0,0,66,138a18.91,18.91,0,0,0,3.86-2.19l4.53,6.05-.23.07A23.08,23.08,0,0,1,68,146.24a20.17,20.17,0,0,1-9.06,1.81c-5.07,0-8.92-1.2-11.64-3.62s-4.08-6-4.08-10.58a22.72,22.72,0,0,1,5.74-15A19.89,19.89,0,0,1,55.69,114a21.14,21.14,0,0,1,8.84-1.81,27.23,27.23,0,0,1,5.21.46,11,11,0,0,1,4.08,1.58,7.39,7.39,0,0,1,2.57,3,9.91,9.91,0,0,1,.91,4.46A9,9,0,0,1,75.48,127.27Zm37.2,19.88h-11l1.21-7.26-.23.08c-.68,1-1.43,2-2.26,2.95a16,16,0,0,1-2.87,2.57,16.33,16.33,0,0,1-3.63,1.88,12.4,12.4,0,0,1-4.54.76,7.89,7.89,0,0,1-6.72-3.1,13.41,13.41,0,0,1-2.27-8.16A27.82,27.82,0,0,1,81.85,128a25.1,25.1,0,0,1,4.31-7.93A21.6,21.6,0,0,1,93,114.43a19.67,19.67,0,0,1,9.37-2.19c.68,0,1.44,0,2.27.07a10.13,10.13,0,0,1,2.27.46l3.25-18.52h11.33Z"/><path class="cls-1" d="M101.27,122.21a7.6,7.6,0,0,0-3.7.91,9.11,9.11,0,0,0-2.95,2.49,12.23,12.23,0,0,0-2,3.63A13,13,0,0,0,92,133.4a7.62,7.62,0,0,0,.68,3.4,2.71,2.71,0,0,0,2.65,1.36l-.08-.08a4.18,4.18,0,0,0,2.87-1.21,23.71,23.71,0,0,0,2.65-2.87,22.47,22.47,0,0,0,2.19-3.33c.61-1.13,1.06-2,1.36-2.72l1.06-4.68a8.37,8.37,0,0,0-2-.83A8.76,8.76,0,0,0,101.27,122.21Zm.16,4.78c-.27.59-.65,1.35-1.15,2.27a19.62,19.62,0,0,1-1.9,2.89,20.77,20.77,0,0,1-2.31,2.51,1.21,1.21,0,0,1-.85.42h0A5.7,5.7,0,0,1,95,133.4a10.09,10.09,0,0,1,.53-3.21A8.81,8.81,0,0,1,97,127.47a6.1,6.1,0,0,1,2-1.7,4.65,4.65,0,0,1,2.29-.56l.56,0Z"/><path class="cls-7" d="M153.88,113.22c-1.21-.3-2.49-.53-3.85-.76A27.37,27.37,0,0,0,136.2,114a21.88,21.88,0,0,0-7.56,5.07,22.63,22.63,0,0,0-4.91,7.71,27,27,0,0,0-1.74,9.74,17.78,17.78,0,0,0,.53,4.61,11.25,11.25,0,0,0,1.66,3.71,8,8,0,0,0,2.95,2.49,9.58,9.58,0,0,0,4.31.91,10.6,10.6,0,0,0,4.08-.76,14.46,14.46,0,0,0,3.47-2,19.56,19.56,0,0,0,2.87-2.72,27.55,27.55,0,0,0,2.12-2.8l-1.06,7.26H154l5.21-31.81a11.19,11.19,0,0,0-2.19-1.14A21.79,21.79,0,0,0,153.88,113.22ZM146,127.12c-.46,1.06-1,2.27-1.59,3.55a19,19,0,0,1-2.19,3.56A18.69,18.69,0,0,1,139.6,137a4.31,4.31,0,0,1-2.72,1.13c-2.19,0-3.33-1.59-3.33-4.68a11.88,11.88,0,0,1,.76-4.39,11.19,11.19,0,0,1,2.11-3.55,10.29,10.29,0,0,1,3.25-2.34,9.52,9.52,0,0,1,4.16-.91,13.49,13.49,0,0,1,2.95.3Z"/><path class="cls-1" d="M146,112.16a25.47,25.47,0,0,1,4.08.3c1.36.23,2.64.46,3.85.76a21.79,21.79,0,0,1,3.17,1,11.19,11.19,0,0,1,2.19,1.14L154,147.15H142.92l1.06-7.26a27.55,27.55,0,0,1-2.12,2.8,19.56,19.56,0,0,1-2.87,2.72,14.46,14.46,0,0,1-3.47,2,10.6,10.6,0,0,1-4.08.76,9.58,9.58,0,0,1-4.31-.91,8,8,0,0,1-2.95-2.49,11.25,11.25,0,0,1-1.66-3.71,17.78,17.78,0,0,1-.53-4.61,27,27,0,0,1,1.74-9.74,22.63,22.63,0,0,1,4.91-7.71A21.88,21.88,0,0,1,136.2,114a25.57,25.57,0,0,1,9.75-1.81m-9.07,25.92A4.31,4.31,0,0,0,139.6,137a18.69,18.69,0,0,0,2.57-2.72,19,19,0,0,0,2.19-3.56c.6-1.28,1.13-2.49,1.59-3.55l.83-4.61a13.49,13.49,0,0,0-2.95-.3,9.52,9.52,0,0,0-4.16.91,10.29,10.29,0,0,0-3.25,2.34,11.19,11.19,0,0,0-2.11,3.55,11.88,11.88,0,0,0-.76,4.39c0,3.09,1.14,4.68,3.33,4.68M146,109.16a28.57,28.57,0,0,0-10.89,2,24.78,24.78,0,0,0-8.58,5.75,25.89,25.89,0,0,0-5.55,8.72A29.91,29.91,0,0,0,119,136.49a21.08,21.08,0,0,0,.63,5.38,14.06,14.06,0,0,0,2.12,4.68,10.89,10.89,0,0,0,4.05,3.43,12.53,12.53,0,0,0,5.65,1.23,13.48,13.48,0,0,0,5.22-1,17,17,0,0,0,3.49-1.93,3,3,0,0,0,2.77,1.86H154a3,3,0,0,0,3-2.52l5.22-31.81a3,3,0,0,0-1.22-2.93,14.27,14.27,0,0,0-2.78-1.46,26.82,26.82,0,0,0-3.6-1.12c-1.36-.34-2.77-.58-4.09-.81a27.81,27.81,0,0,0-4.57-.34Zm-9.16,25.92a4.3,4.3,0,0,1-.24-1.68,9,9,0,0,1,.55-3.3,8.08,8.08,0,0,1,1.53-2.6,7.2,7.2,0,0,1,2.32-1.67,6.42,6.42,0,0,1,2.29-.6l-.19,1c-.35.83-.85,2-1.41,3.15a15.61,15.61,0,0,1-1.83,3,14.47,14.47,0,0,1-2.13,2.27,1.56,1.56,0,0,1-.8.44Z"/><path class="cls-8" d="M216.77,116.85a5.48,5.48,0,0,0-1.29-2.35,6,6,0,0,0-2.42-1.58,10,10,0,0,0-3.62-.61,11.86,11.86,0,0,0-4.46.83,14.79,14.79,0,0,0-3.55,2,15.55,15.55,0,0,0-2.72,2.72,21.75,21.75,0,0,0-1.89,2.95V119a9.34,9.34,0,0,0-.38-2.49,5.29,5.29,0,0,0-1.13-2.12,6.1,6.1,0,0,0-2-1.51,7.54,7.54,0,0,0-3.1-.6,10.78,10.78,0,0,0-3.86.68,12.54,12.54,0,0,0-3.32,1.81,17.49,17.49,0,0,0-2.65,2.49,27.51,27.51,0,0,0-2,2.57l1.13-6.42H168.18l-6,34h11.33l2.42-14c.45-.84,1-1.89,1.59-3.1a34.42,34.42,0,0,1,2-3.4,15.65,15.65,0,0,1,2.12-2.72,3.09,3.09,0,0,1,2.12-1.14,1.1,1.1,0,0,1,1.2.91,7.48,7.48,0,0,1,.23,1.81v1.29a3.75,3.75,0,0,1-.15,1.06l-3.4,19.26H193l2.35-13.75c.53-1.13,1.05-2.34,1.58-3.63a21.81,21.81,0,0,1,1.82-3.47,12.5,12.5,0,0,1,2.11-2.57,3.39,3.39,0,0,1,2.34-1,1.33,1.33,0,0,1,1.37.9,5.26,5.26,0,0,1,.3,1.82,13.12,13.12,0,0,1-.23,2.57l-3.4,19.19,11.71-.3,3.93-22.22c.08-.68.15-1.51.23-2.49s.07-1.89.07-2.72A12.26,12.26,0,0,0,216.77,116.85Z"/><path class="cls-1" d="M190.17,112.24a7.51,7.51,0,0,1,3.1.6,6.1,6.1,0,0,1,2,1.51,5.29,5.29,0,0,1,1.13,2.12,9.34,9.34,0,0,1,.38,2.49v1.89a21.75,21.75,0,0,1,1.89-2.95,15.55,15.55,0,0,1,2.72-2.72,14.79,14.79,0,0,1,3.55-2,11.86,11.86,0,0,1,4.46-.83,10,10,0,0,1,3.62.61,6,6,0,0,1,2.42,1.58,5.48,5.48,0,0,1,1.29,2.35,12.26,12.26,0,0,1,.37,2.87c0,.83,0,1.74-.07,2.72s-.15,1.81-.23,2.49l-3.93,22.22-11.71.3,3.4-19.19a13.12,13.12,0,0,0,.23-2.57,5.26,5.26,0,0,0-.3-1.82,1.33,1.33,0,0,0-1.37-.9,3.39,3.39,0,0,0-2.34,1,12.5,12.5,0,0,0-2.11,2.57,21.81,21.81,0,0,0-1.82,3.47c-.53,1.29-1,2.5-1.58,3.63L193,147.37H181.63l3.4-19.26a3.75,3.75,0,0,0,.15-1.06v-1.29A7.48,7.48,0,0,0,185,124a1.1,1.1,0,0,0-1.2-.91,3.09,3.09,0,0,0-2.12,1.14,15.65,15.65,0,0,0-2.12,2.72,34.42,34.42,0,0,0-2,3.4c-.61,1.21-1.14,2.26-1.59,3.1l-2.42,14H162.21l6-34h11.33l-1.13,6.42a27.51,27.51,0,0,1,2-2.57,17.49,17.49,0,0,1,2.65-2.49,12.54,12.54,0,0,1,3.32-1.81,10.78,10.78,0,0,1,3.86-.68m0-3a13.87,13.87,0,0,0-4.91.87,16,16,0,0,0-3.23,1.63,3.3,3.3,0,0,0-.22-.3,3,3,0,0,0-2.3-1.07H168.18a3,3,0,0,0-3,2.48l-6,34a3,3,0,0,0,3,3.51h11.33a3,3,0,0,0,3-2.48l2.33-13.5c.43-.81.9-1.76,1.4-2.75a32.48,32.48,0,0,1,1.63-2.85l-3.19,18.06a3,3,0,0,0,3,3.52H193a3,3,0,0,0,3-2.49l2.28-13.36c.48-1.05,1-2.19,1.47-3.38a17.79,17.79,0,0,1,1.56-3c.16-.25.31-.47.47-.68,0,.07,0,.14,0,.21v.06l-3.4,19.2a3,3,0,0,0,2.95,3.52h.08l11.71-.3a3,3,0,0,0,2.88-2.48l3.93-22.22a1.23,1.23,0,0,0,0-.19c.08-.72.16-1.59.24-2.59s.08-2.08.08-3a14.87,14.87,0,0,0-.46-3.6,8.39,8.39,0,0,0-2-3.61,9,9,0,0,0-3.58-2.39,13,13,0,0,0-4.7-.81,14.66,14.66,0,0,0-5.6,1.06,17.65,17.65,0,0,0-4.27,2.46c-.36.28-.71.58-1,.88a8.15,8.15,0,0,0-1-1.33,8.9,8.9,0,0,0-3.05-2.27,10.61,10.61,0,0,0-4.34-.87Z"/></g></g></svg>