<svg width="321" height="175" viewBox="0 0 321 175" fill="none" xmlns="http://www.w3.org/2000/svg">
<path fill-rule="evenodd" clip-rule="evenodd" d="M151.13 43.67C166.91 48.8 175.75 63.59 179.36 78.33C179.55 79.11 180.09 81.44 180.13 81.72C180.58 85.04 180.78 83.28 179.84 85.7C174.07 81.88 170.95 75.44 164.11 71.24C125.45 47.49 139.56 94.78 108.09 92.49C107.92 87.48 119.31 80.56 111.03 69.79C105.13 72.3 105.47 81.02 96.62 89.87C91.91 94.58 76.94 99.15 70.01 93.62C76.97 84.17 82.39 90 93.07 65.63C95.09 61.02 98.79 58.01 99.73 54.58C93.67 52.36 93.63 54.72 88.56 58.62C61.58 79.39 60.91 125.45 83.41 150.31C96.69 164.97 112.09 172.47 133.44 174.1C155.97 175.82 179.65 172.12 197.34 163.33C206.84 158.6 212.9 154.63 218.88 148.4C224.39 142.66 230.46 134.07 234.26 126.51C251.91 91.47 245.43 45.03 201.23 28.33C191.47 24.65 179.98 22.7 168.7 24.51C153.62 26.94 160.51 32.05 151.13 43.67Z" fill="#FF0018"/>
<path fill-rule="evenodd" clip-rule="evenodd" d="M94.13 23.25C96.31 24.91 98.74 25.36 101.35 27.22C106.51 30.88 113.3 41.29 115.17 48.51C108.77 40.47 106.6 35.57 90.59 44.06L82.53 49.74C93.77 46.92 98.92 46.99 104.5 55.53C103.18 58.55 101.24 58.6 98.07 64.82C92.72 75.34 95.2 75.41 85.49 85.39C83.99 86.93 78.2 91.9 76.9 92.24C91.98 94.24 98.15 82.03 103.23 72.49C105.96 67.38 111.23 61.03 116 69.68C120.02 76.97 117 82.85 113.97 88.84C130.09 85.1 125.99 65.94 140.14 61.36C147.31 59.04 155.91 61.83 161.39 64.89C169.67 69.52 172.93 75.27 175.81 77.26C174.18 70.66 172.18 67.33 168.78 62.47C166.64 59.42 161.07 53.91 158.08 51.63C147.27 43.39 135.44 44.63 125.41 52.01C127.82 44.69 108.1 6.82998 93.09 1.59998C96 9.23998 98.03 13.9 94.13 23.25Z" fill="#00CA01"/>
<path fill-rule="evenodd" clip-rule="evenodd" d="M128.51 46.38C134.12 44.7 144.45 42.81 146.6 41.36C154.63 35.95 150.85 24.46 168.97 15.66C178.26 11.15 182.49 13.23 186.52 12.83L188.52 12.37C173.78 9.14999 155.58 7.14998 144.35 21.71C138.73 29 138.99 30.94 136.72 34.23C135.56 20.61 135.15 18.41 127.8 10.18C127.31 18.48 128.56 22.63 125.16 29.9C123.23 34.04 123.46 33.47 125.4 37.91C126.74 40.96 127.22 43.57 128.51 46.38Z" fill="#00BA0A" stroke="#00CA01" stroke-width="0.03" stroke-miterlimit="22.9256"/>
<path fill-rule="evenodd" clip-rule="evenodd" d="M91.48 22.5C94.3 16.57 94.88 3.83 87.94 0.839996C83.68 2.59 83.26 7.58999 84.14 12.93C85.1 18.71 86.22 22.23 91.48 22.5Z" fill="#00CC00"/>
<path d="M37.31 86.06C26.97 86.06 18.11 89.7 10.92 96.89C3.72999 104.09 0.0799866 112.95 0.0799866 123.29C0.0799866 133.63 3.72999 142.4 10.92 149.59C18.11 156.88 26.87 160.52 37.21 160.52C43.12 160.52 48.54 159.34 53.47 156.98C58.29 154.71 62.43 151.46 65.78 147.32L49.92 131.66C48.44 133.73 46.67 135.41 44.5 136.59C42.34 137.87 39.87 138.46 37.21 138.46C33.08 138.46 29.53 136.98 26.58 134.03C23.62 131.07 22.14 127.53 22.14 123.29C22.14 119.15 23.62 115.61 26.58 112.56C29.43 109.6 32.98 108.12 37.21 108.12C39.58 108.12 41.84 108.62 43.91 109.5C45.98 110.49 47.75 111.96 49.13 113.84L64.99 98.37C61.74 94.53 57.6 91.48 52.68 89.31C47.66 87.14 42.53 86.06 37.31 86.06Z" fill="#00CA01"/>
<path d="M70.11 133.04C70.11 140.53 72.77 146.93 78.19 152.25C83.61 157.57 90.01 160.23 97.49 160.23C102.52 160.23 107.05 159.05 111.09 156.58C115.13 154.22 118.57 150.77 121.43 146.24L106.75 140.53C105.67 142.1 104.39 143.19 103.01 143.68C101.63 144.17 99.76 144.47 97.49 144.47C95.43 144.47 93.55 143.78 92.08 142.5C90.5 141.22 89.32 139.45 88.53 137.18H124.58L124.88 133.04C124.88 125.46 122.22 119.06 116.9 113.64C111.48 108.32 105.08 105.66 97.49 105.66C90.01 105.66 83.61 108.32 78.19 113.64C72.77 118.96 70.11 125.46 70.11 133.04ZM88.53 128.71C89.12 126.64 90.21 124.87 91.88 123.59C93.55 122.31 95.43 121.62 97.49 121.62C99.66 121.62 101.63 122.21 103.31 123.49C104.98 124.77 106.26 126.44 106.95 128.71H88.53Z" fill="#00CA01"/>
<path d="M156.1 140.53C154.03 140.53 152.16 139.84 150.68 138.36C149.2 136.88 148.42 135.11 148.42 132.85C148.42 130.78 149.2 129 150.68 127.53C152.16 126.05 154.03 125.36 156.1 125.36C158.46 125.36 160.24 126.05 161.52 127.53L156.1 107.14C148.12 107.14 141.62 109.5 136.5 114.13C131.28 118.86 128.72 125.06 128.72 132.85C128.72 140.43 131.38 146.83 136.79 152.15C142.11 157.57 148.52 160.23 156.1 160.23C163.59 160.23 169.99 157.57 175.4 152.25C180.82 146.93 183.48 140.43 183.48 132.85V109.21C183.48 101.13 180.62 95.12 174.91 91.18C170.18 87.93 163.78 86.36 155.8 86.36C151.47 86.36 147.63 86.55 144.38 86.85C141.13 87.24 138.07 87.93 135.22 88.92V105.86C139.95 104.87 143 104.28 144.48 103.99C147.83 103.4 150.68 103.1 153.05 103.1C156.49 103.1 159.05 103.69 160.73 104.77C162.8 106.15 163.78 108.42 163.78 111.57V132.85C163.78 135.11 162.99 136.98 161.52 138.36C159.94 139.84 158.17 140.53 156.1 140.53Z" fill="#00CA01"/>
<path d="M222.39 158.75H242.09V133.04C242.09 125.46 239.43 119.06 234.11 113.64C228.69 108.32 222.29 105.66 214.7 105.66C207.22 105.66 200.82 108.32 195.4 113.64C189.98 118.96 187.32 125.46 187.32 133.04C187.32 140.53 189.98 146.93 195.4 152.25C200.82 157.57 207.22 160.23 214.7 160.23L220.12 138.36C218.84 139.84 217.07 140.53 214.7 140.53C212.64 140.53 210.86 139.84 209.39 138.36C207.81 136.98 207.02 135.21 207.02 133.04C207.02 130.88 207.81 129 209.29 127.53C210.76 126.05 212.54 125.36 214.7 125.36C216.77 125.36 218.64 126.05 220.12 127.43C221.6 128.81 222.39 130.68 222.39 133.04V158.75Z" fill="#00CA01"/>
<path d="M265.53 105.66C259.42 105.66 255.09 107.04 252.43 109.7C249.77 112.36 248.49 116.5 248.49 122.01L245.73 158.75H263.95L266.12 125.46L269.37 139.74C271.04 147.23 272.72 152.35 274.29 155.01C276.36 158.45 279.32 160.23 283.16 160.23C289.17 160.23 293.8 153.33 297.15 139.54L300.59 125.46L302.76 158.75H320.98L318.22 122.01C318.22 116.5 316.94 112.46 314.48 109.9C311.72 107.04 307.29 105.66 301.18 105.66C297.34 105.66 294.39 106.55 292.12 108.22C289.46 110.29 287.49 113.84 286.41 118.86L283.36 132.85L280.7 118.86C279.71 113.84 277.74 110.29 274.89 108.22C272.52 106.55 269.37 105.66 265.53 105.66Z" fill="#00CA01"/>
</svg>
